<svg xmlns="http://www.w3.org/2000/svg" version="1.1" width="600px" height="600px" viewBox="0 0 200 200" style="overflow:hidden!important;"><g id="svga-group-wrapper"><g id="svga-group-backs-single"><path id="SvgjsPath10720" d="M0 0h200v200H0V0z" fill="#dafffc" stroke-width="none" opacity="1" stroke="none"></path><path id="SvgjsPath10721" d="M100 124.2c-13.3 0-24.2-10.8-24.2-24.2S86.7 75.8 100 75.8s24.2 10.8 24.2 24.2-10.9 24.2-24.2 24.2zm0-42.4c-10 0-18.2 8.2-18.2 18.2s8.2 18.2 18.2 18.2 18.2-8.2 18.2-18.2S110 81.8 100 81.8zm0 57.4c-21.6 0-39.2-17.6-39.2-39.2S78.4 60.8 100 60.8s39.2 17.6 39.2 39.2-17.6 39.2-39.2 39.2zm0-72.4c-18.3 0-33.2 14.9-33.2 33.2s14.9 33.2 33.2 33.2 33.2-14.9 33.2-33.2-14.9-33.2-33.2-33.2zm0 87.5c-29.9 0-54.3-24.4-54.3-54.3S70.1 45.7 100 45.7 154.3 70 154.3 100s-24.4 54.3-54.3 54.3zm0-102.6c-26.6 0-48.3 21.7-48.3 48.3 0 26.6 21.7 48.3 48.3 48.3 26.6 0 48.3-21.7 48.3-48.3 0-26.6-21.7-48.3-48.3-48.3zm0 116.4c-37.6 0-68.1-30.6-68.1-68.1S62.4 31.9 100 31.9s68.1 30.6 68.1 68.1-30.5 68.1-68.1 68.1zm0-130.2c-34.2 0-62.1 27.9-62.1 62.1s27.9 62.1 62.1 62.1 62.1-27.9 62.1-62.1-27.9-62.1-62.1-62.1zm0 146.2c-46.4 0-84.1-37.7-84.1-84.1S53.6 15.9 100 15.9s84.1 37.7 84.1 84.1-37.7 84.1-84.1 84.1zm0-162.2c-43.1 0-78.1 35-78.1 78.1s35 78.1 78.1 78.1 78.1-35.1 78.1-78.1-35-78.1-78.1-78.1zm0 90c-6.6 0-11.9-5.4-11.9-11.9 0-6.6 5.4-11.9 11.9-11.9 6.6 0 11.9 5.4 11.9 11.9 0 6.6-5.3 11.9-11.9 11.9zm0-17.8c-3.3 0-5.9 2.7-5.9 5.9 0 3.3 2.7 5.9 5.9 5.9 3.3 0 5.9-2.7 5.9-5.9 0-3.3-2.6-5.9-5.9-5.9zM0 146.7v12.8c9.9 16.6 23.9 30.6 40.5 40.5h12.8C29.9 189 11 170.1 0 146.7zm200 0c-11 23.4-29.9 42.3-53.3 53.3h12.8c16.6-9.9 30.6-23.9 40.5-40.5v-12.8zm0-93.4V40.5C190.1 23.9 176.1 9.9 159.5 0h-12.8C170.1 11 189 29.9 200 53.3zm-200 0C11 29.9 29.9 11 53.3 0H40.5C23.9 9.9 9.9 23.9 0 40.5v12.8zm200 36.3C195.1 42.5 157.6 4.9 110.4 0H89.6C42.5 4.9 4.9 42.5 0 89.6v20.8c4.9 47.1 42.5 84.7 89.6 89.6h20.8c47.1-4.9 84.7-42.4 89.6-89.6V89.6zM100 194.5c-52.1 0-94.5-42.4-94.5-94.5S47.9 5.5 100 5.5s94.5 42.4 94.5 94.5-42.4 94.5-94.5 94.5zM0 176.2v9.5c4.4 5.1 9.1 9.9 14.3 14.3h9.5c-9-6.8-17-14.8-23.8-23.8zm200 0c-6.8 8.9-14.8 16.9-23.8 23.8h9.5c5.1-4.4 9.9-9.1 14.3-14.3v-9.5zM0 23.8c6.8-9 14.8-17 23.8-23.8h-9.5C9.1 4.4 4.4 9.1 0 14.3v9.5zm200 0v-9.5c-4.4-5.1-9.1-9.9-14.3-14.3h-9.5c9 6.8 17 14.8 23.8 23.8z" fill="#b5f0eb" stroke-width="none" opacity="1" stroke="none"></path></g><g id="svga-group-humanwrap-move" transform="matrix(1,0,0,1,0,0)"><g id="svga-group-humanwrap"><g id="svga-group-hair-back-move" transform="matrix(1,0,0,1,0,0)"><g id="svga-group-hair-back"></g></g><g id="svga-group-humanbody-back"><path id="SvgjsPath6107" d="M180.8 184.9c-2.3-3.4-38.9-17.8-38.9-17.8l-13.4-5.2-5.6-68.8H76.8L71.3 162l-13.4 5.2S21.4 181.6 19 185c-2.3 3.4-3.3 14.9-3.3 14.9V219h168.5v-19.2c-.1.1-1-11.5-3.4-14.9z" fill="#f0c7b1" stroke-width="none" opacity="1" stroke="none"></path></g><g id="svga-group-chinshadow-single"><path id="SvgjsPath10740" d="M86.28 166.6c3.1.6 16.12.6 19.22 0 3.2-.5 12.2-9.4 20.1-16.7.6-.57 1.21-1.17 1.82-1.79l-4.48-55.01H76.82l-5.15 64.72c5.98 4.49 12.61 8.4 14.61 8.78z" fill="#d19271" stroke-width="none" opacity="1" stroke="none"></path></g><g id="svga-group-humanbody-front"><path id="SvgjsPath6108" d="M184.5 219c-.1-6.4-.1-12.8-.1-19.2l-.3-.1s.1-.1.2 0c.1 0 .1.1.1.1v-.4l-.1-.5-.1-.9-.2-1.9c-.2-1.3-.4-2.5-.6-3.8-.2-1.3-.5-2.5-.9-3.8-.4-1.2-.8-2.5-1.5-3.6-.8-.9-1.9-1.5-2.9-2.1-1-.6-2.1-1.1-3.2-1.7-2.1-1.1-4.3-2.1-6.5-3.1-4.4-2-8.7-3.9-13.1-5.7-4.4-1.9-8.8-3.7-13.2-5.5l-13-5.2-1.2-16.9c-.4-5.7-.9-11.5-1.3-17.2l-1.3-17.2-1.5-17.3-.1-.8h-.8c-7.7 0-15.4.1-23.1.1l-23.1.2h-.5v.5L75 110.2l-1.3 17.2c-.8 11.4-1.8 22.8-2.8 34.2-5.6 2.1-11.2 4.2-16.7 6.4-5.6 2.2-11.2 4.5-16.8 6.9-2.8 1.2-5.6 2.4-8.3 3.6-2.8 1.3-5.5 2.5-8.2 4.1-.7.4-1.3.8-2 1.4-.2.1-.4.4-.5.6l-.3.6c-.2.4-.4.7-.5 1.1-.6 1.5-1 3-1.3 4.5-.6 3-1.1 6-1.4 9.1l-.1 19.1v.9h.9l42.1.1H100c14 0 28.1-.1 42.1-.2l42.1-.5h.3v-.3zm-84.5-1-42.1-.1-41.2.1-.1-18.1c.3-3 .6-5.9 1.2-8.9.3-1.4.6-2.9 1.1-4.2.1-.3.3-.7.4-.9l.2-.4.3-.3c.5-.4 1.1-.8 1.8-1.2 2.5-1.5 5.3-2.8 8-4.1 2.7-1.3 5.5-2.5 8.2-3.7 5.5-2.4 11.1-4.8 16.7-7.1s11.2-4.5 16.9-6.7l.2-.1v-.2c.9-11.5 1.7-23 2.7-34.4l1.4-17.2 1.5-16.7 22.6.2c7.4.1 14.8.1 22.3.1l1.3 16.4 1.5 17.2c.5 5.7 1 11.5 1.5 17.2l1.6 17.2v.3l.3.1 13.4 5c4.4 1.7 8.9 3.4 13.3 5.2 4.4 1.8 8.8 3.7 13.2 5.6 2.2 1 4.3 2 6.5 3 1.1.5 2.1 1.1 3.2 1.6 1 .6 2.1 1.2 2.9 2 .7 1.1 1.1 2.3 1.4 3.5.3 1.2.6 2.5.8 3.7.2 1.3.4 2.5.6 3.8l.2 1.9.1.9.1.5v.4c0 6.3 0 12.6-.1 18.9l-41.8-.5c-14 .1-28.1 0-42.1 0z" fill="#c27b55" stroke-width="none" opacity="1" stroke="none"></path><path id="SvgjsPath6109" d="M125.1 142.4s-1.8 23-9.1 32.9c0 0 7.9-25 9.1-32.9zm-34.5 16s5 7.9 11.5 10.1c0 0-9.5 2.2-11.5-10.1zM73.4 140c6.7 25.6 6.7 25.6 8.5 30.7 0 0 .4-12.6-8.5-30.7z" fill="#d19271" stroke-width="none" opacity="1" stroke="none"></path></g><g id="svga-group-clothes-single"><path id="SvgjsPath12559" d="M10.9 220c0-15.2 1.2-32.2 2.3-34.1 1-1.9 5-3.3 5-3.3s3.5-2.9 7.1-4.8c3.5-1.9 15.7-3.9 15.7-3.9s0-1 .4-1.9 1.9-1.2 5-5.2 2.1-4.8 2.7-6.7c.6-1.9 4.4-1.5 4.4-1.5s.4-6 4.8-10c4.4-3.9 13.6-6.6 13.6-6.6s-.1 6.9-.1 11.3-1.3 4.6 5.1 12.6c6.5 7.9 12.4 15.1 15.4 17 3.1 1.9 7.2 4 9.1 9.5 0 0 1.7-4.4 3.7-5.9s6.2-6 7.9-7.7c1.7-1.7 5.3-8.1 7.5-9.5 2.2-1.5 7.4-6.5 8.3-7.9s-.9-21.7-.9-21.7 6.9 3.7 9.4 5.4c2.5 1.7 4.9 9.5 4.9 9.5s2.4 2.1 5.1 4.1 4.7 2.9 6.2 5.7c1.5 2.8.8 5.3 1.4 6.5.6 1.1 1.2 2 1.6 2.6 0 0 17.1 5.1 20 6.4s5.7 4 5.7 4 3.1 1.9 3.9 9.8 1.8 26.4 1.8 26.4l-177-.1z" fill="#29a4b2" stroke-width="none" opacity="1" stroke="none"></path><path id="SvgjsPath12560" d="m188.6 219.9-1.2-18.6c-.2-3.1-.4-6.2-.9-9.3-.2-1.6-.6-3.2-1.2-4.7-.3-.8-.7-1.5-1.1-2.2-.2-.4-.5-.7-.8-1-.3-.3-.5-.6-.9-.9-1.5-1.4-3.1-2.6-4.9-3.6-.9-.5-1.9-.9-2.8-1.2l-2.8-1.1-15.3-4.3c-.5-.8-1.1-1.6-1.4-2.4-.1-.3-.2-.8-.2-1.3s-.1-1-.1-1.6c-.2-2.2-1.2-4.3-2.7-5.9-1.6-1.6-3.4-2.6-5.1-3.8-1.6-1.1-3.2-2.4-4.7-3.7-.6-1.7-1.2-3.3-1.9-4.9-.4-.8-.8-1.6-1.3-2.4-.5-.8-1-1.6-1.9-2.2-1.5-1-3.1-1.9-4.7-2.8-1.6-.9-3.2-1.7-4.8-2.6l-.7-.4s.7 11.7 1 17.3c0 1.4.4 3 .3 4.3 0 .2 0 .3-.1.5 0 .1 0 .1-.1.2l-.1.2c-.2.3-.4.5-.6.8-.4.5-.9 1-1.4 1.5-2 2-4 3.9-6.2 5.6-1.1.9-2 2.1-2.8 3.2-.8 1.1-1.6 2.3-2.4 3.4-.4.6-.8 1.1-1.2 1.7-.4.6-.8 1.1-1.4 1.5-1.1.8-3.5 4.2-6.3 6.5-.6.4-1.2.7-1.8 1.3-.5.5-.9 1.1-1.3 1.7-.6.9-1.1 1.8-1.5 2.8-.9-2.2-2.5-4.3-4.4-5.8-1.1-.9-2.2-1.6-3.4-2.4-1.2-.7-2.1-1.7-3.2-2.5-4.4-4-4.4-6-8.3-9.7-1.9-1.9-3.6-4.1-5.2-6.2-.8-1.1-1.7-2.1-2.4-3.2-.8-1.1-1.4-2.2-1.8-3.4-.4-1.1-.2-2.4-.1-3.8l.1-4.1.1-8.1v-1.2l-1.2.3c-2.2.6-4.3 1.4-6.3 2.3-2.1.9-4.1 1.9-6 3.2-1.9 1.3-3.6 3.1-4.6 5.2-1 1.8-1.6 3.8-1.9 5.8-.7 0-1.4.1-2.2.2-.5.1-1 .3-1.5.7-.2.2-.5.5-.6.8-.2.3-.2.6-.3.8-.1.5-.2 1-.2 1.4 0 .4-.1.8-.2 1.1-.2.7-.7 1.5-1.1 2.2-1 1.4-2.1 2.8-3.3 4-.6.6-1.2 1.1-2 1.8-.2.2-.4.4-.6.7-.2.3-.2.5-.3.8-.1.3-.2.6-.2 1-1.5.4-7.5.9-9 1.4-1.6.6-3.2 1.1-4.8 1.8-1.6.7-3.1 1.6-4.5 2.6-1.4.9-2.7 1.9-4 3-1.6.7-3.1 1.4-4.4 2.6-.3.3-.6.7-.9 1.2-.2.5-.2.9-.3 1.3-.2.9-.3 1.7-.4 2.5-.4 3.4-.6 6.7-.8 10.1-.2 3.4-.3 6.7-.3 10.1 0 1.7-.1 3.4-.1 5 0 1.7 0 3.3.1 5.1l43.9.4 44.2.3c14.7.1 29.5.1 44.3.2 14.8 0 29.6.1 44.4 0h1.1l-.1-1.1zm-85-30.9c.4-.6.8-1.1 1.2-1.6.4-.5 1-.8 1.6-1.2 2.4-1.4 3.4-4.9 12.8-9.5 3.2-1.6 6-3.6 8.7-5.7 1.4-1.1 2.7-2.2 4-3.3.6-.6 1.3-1.2 1.8-2s.9-1.6 1.3-2.4c.7-1.7 1.1-3.4 1.2-5.2 0-.4 0-.9-.1-1.4-.1-.4-.2-.9-.4-1.3-.3-.8-.7-1.6-1.2-2.3.3.8.5 1.6.7 2.5.1.8.2 1.6 0 2.4-.3 1.6-.9 3.2-1.7 4.6-.4.7-.8 1.4-1.3 2-.5.6-1.1 1.1-1.7 1.7-1.3 1.1-2.6 2.1-3.9 3.2-1.3 1.1-2.7 2.1-4.1 3.1l-2.1 1.5c-.7.5-1.4.9-2.1 1.4-1.5.9-2.9 1.9-4.4 2.9.1-.1.1-.2.2-.2.4-.6.8-1.1 1.2-1.7.8-1.1 1.6-2.3 2.4-3.4.8-1.1 1.7-2.3 2.7-3.1 2.3-1.6 4.3-3.6 6.3-5.6l1.5-1.5c.2-.3.5-.5.7-.8 0 0 2-2.5 2.4-3.6.5-1.3.8-2.7.7-4.2-.2-1.4-.9-5.1-1.6-6.4-.5-1.1-2-4.9-2.2-7.2 1.4.8 2.7 1.5 4.1 2.3 1.6.9 3.1 1.8 4.6 2.8.6.4 1.1 1.2 1.6 1.9.4.8.8 1.5 1.2 2.4.7 1.6 1.3 3.3 1.9 5l.1.1.1.1c.1 0 .1.1.1.1v.1c0 1.1-.1 2.3-.3 3.4-.3 2.2-1 4.4-1.8 6.5-1.5 4.2-3.9 8.1-7.5 10.4-.9.6-1.8 1.1-2.9 1.7l-3 1.8-5.8 3.6c-1 .6-1.9 1.1-2.9 1.6-.5.2-1 .5-1.5.6-.5.2-1.1.3-1.6.4-2.2.6-4.4 1.2-6.6 1.9 2.3-.3 4.6-.6 6.8-.9.6-.1 1.1-.1 1.7-.3.6-.1 1.2-.3 1.7-.6 1.1-.4 2.1-1 3.2-1.5 2.1-1.1 4-2.3 6-3.4 1-.6 2-1.1 3-1.7 1-.5 2.1-1.1 3-1.8 2-1.4 3.7-3.1 5-5.1 1.3-2 2.2-4.2 2.9-6.5.7-2.2 1.1-4.5 1.2-6.9 0-1 0-2.1-.1-3.1 1.3 1.2 2.7 2.3 4.1 3.3 1.7 1.2 3.5 2.2 4.8 3.6 1.3 1.4 2.1 3.2 2.3 5.2.1.5.1 1 .1 1.5s0 1 .3 1.7c-.8.9-1.6 1.9-2.3 2.8-.9 1.2-1.9 2.3-2.8 3.4-1.9 2.1-4.2 4.2-6.1 6.6 1.5-.6 2.8-1.4 4.1-2.2 1.3-.9 2.5-1.9 3.5-3 1.1-1.2 1.9-2.5 2.6-3.9.5-1 1-2 1.3-3.1.4.8.9 1.6 1.4 2.2l.1.2h.1c-1.5 2.2-3 4.4-4.7 6.6-1.8 2.3-3.7 4.6-5.9 6.4-2.3 1.8-4.8 3.2-7.5 4.3-2.7 1.1-5.4 2.1-8.2 2.9-2.8.8-5.7 1.3-8.6 1.8-2.9.5-5.7 1.2-8.6 1.6-3.4.6-4.8.5-5.1.5 0-1.1-.1-2.1-.3-2.8.6-.3 1.4-.9.1-1.4-1.6-.5-3.1.2-3.1.9-.1.6.5.7 1.1.7.2.6.2 1.3.2 2.1-.3-.1-.6-.3-.8-.5-.5-.4-.9-.8-1.3-1.3-.3-.5-.7-1.1-.8-1.6l-.6-2.1c.6-.9 1.1-2 1.8-3zm-61.9-14.6v-.6c0-.3.1-.8.2-1.1 0-.2.1-.4.2-.4 0-.1.1-.2.3-.3.6-.5 1.4-1.1 2-1.8 1.3-1.3 2.5-2.7 3.5-4.2.5-.8 1-1.6 1.3-2.6.3-1 .3-2 .5-2.7 0-1.1 1.6-1.3 3.1-1.3 0 .6.1 1.1.1 1.7.4 3.3 1.5 6.6 3.1 9.6 1.7 2.9 3.9 5.6 6.5 7.6 2.6 2.1 5.6 3.7 8.7 4.7-2.8-1.8-5.4-3.7-7.7-5.9s-4.3-4.7-5.8-7.4c-.8-1.4-1.4-2.8-2-4.3-.6-1.5-1-3-1.3-4.5-.1-.5-.2-1.1-.3-1.6l.1-.6c.2-2 .9-4.1 1.9-5.9 1-1.9 2.4-3.4 4.1-4.6 1.7-1.2 3.7-2.1 5.7-3 1.6-.7 3.3-1.3 5-1.9 0 0-1.7 4.2-2.2 5.1-.7 1.1-1 2.6-.7 3.9.1.7.3 1.3.6 1.8.2.6.5 1.1.8 1.6.4.7 3 5.6 3.8 6.8.8 1.1 1.7 2.2 2.5 3.3 1.7 2.1 3.6 4.9 5.6 6.8 4.1 4 3.8 6.3 8.3 9.4 1.1.8 2.3 1.5 3.5 2.2 1.2.7 2.3 1.4 3.3 2.2 2.1 1.6 3.7 3.8 4.6 6.3l.1.3-.4 1.1c-.2.6-.5 1.3-.9 1.8-.4.6-.8 1-1.2 1.1-.1 0-.2.1-.4.1h-1.3c0-.1.1-.2.1-.3.3-.6.6-1.2.8-1.5.4.1.9 0 1-.3.2-.5-.6-2.1-1.6-2-.9 0-1.3.3-.5 1.4-.6.6-1.3 1.5-1.8 2.8h-.6c-3.1-.1-6.1-.4-9.2-.7-3.1-.4-6.1-.7-9-1.5-2.9-.8-15.6-7.5-21.2-10-2.8-1.2-5.7-2.4-8.3-4.1-1.3-.9-2.5-1.8-3.5-3-.8-.9-1.6-2.1-1.9-3.3l.5-.2zm102 44.6c-14.7 0-29.3.1-44 .2l-44.2.3-44.5.4c.1-1.6.1-3.3.2-5l.2-5c.1-3.4.3-6.7.6-10.1.2-3.3.6-6.7 1-10 .1-.8.2-1.6.4-2.4.1-.4.2-.8.3-1.1.1-.3.4-.6.6-.8 1.1-1 2.7-1.8 4.2-2.4h.1l.1-.1c1.3-1 2.7-2 4.1-2.9 1.4-.9 2.8-1.8 4.3-2.4 3-1.3 10.9-2.2 14.1-3.1.3 1.3 1 2.4 1.8 3.5 1 1.2 2.2 2.3 3.4 3.2 2.5 1.9 5.4 3.2 8.2 4.5 5.6 2.7 18.2 9.9 21.2 10.8 1.5.4 3.1.8 4.6 1s3.1.5 4.6.7c3.1.4 6.2.6 9.3.8h.2v.1c-.3 2.9 1.6 8.7 2 12.1s-1 6.8-.3 7 2.5.9 2.8-.2c.3-1.1.6-10.9-.9-13.9-.9-1.8-1.3-3.6-1.3-5.1H98.5c.2 0 .5-.1.8-.1 1.1-.3 1.8-1.2 2.3-1.9.1-.1.1-.2.2-.3 0 .1.1.1.1.2.5.7 1.1 1.3 1.8 1.8.6.4 1.2.7 1.8.9-.1.5-.1.9-.2 1.3-.4 1.9-2 3.1-1.2 7.2s3.1 6.1 3.4 7.7c.3 1.6.4 2.9 1 2.9s2.4-.7 2.7-1.6-.8-3.5-2.3-5.4c-1.5-1.9-2.8-4.6-2.8-6.1 0-1.3.9-3.7 1.3-5.7 6.7-.6 11.3-1.8 14.2-2.3s5.8-1.2 8.6-2c2.9-.9 5.6-1.9 8.3-3.2 2.7-1.3 5.3-2.8 7.6-4.8 2.2-2 4.1-4.4 5.8-6.8 1.6-2.2 3-4.5 4.3-6.9h.1l15.4 4.5 2.7 1.1c.9.4 1.8.8 2.6 1.2 1.6.9 3.2 2.1 4.6 3.4l.1.1.6.6.6.9c.4.6.7 1.3.9 1.9.5 1.4.9 2.8 1.1 4.3.4 3 .6 6.1.8 9.2.4 5.8.7 11.7 1.1 17.5-14.5.2-28.8.2-43.1.3zM32.8 203.3c-.3-1.8-1-3.3-1.7-4.7-1.5-2.9-3.2-5.6-5.1-8.2-1-1.3-1.9-2.6-3.1-3.7-1.2-1.1-2.5-2.1-4.1-2.6 1.4.8 2.5 2 3.4 3.2.9 1.2 1.7 2.6 2.6 3.9 1.6 2.7 3.2 5.4 4.6 8.2.7 1.4 1.4 2.8 1.6 4.1.3 1.5.4 3.1.6 4.6.3 3.1.6 6.3 1.1 9.5.4-3.2.5-6.4.4-9.6 0-1.4-.1-3-.3-4.7zm142.4-17.5c-.9.2-1.8.7-2.4 1.4-.6.7-1.1 1.5-1.5 2.2-1.8 2.8-3.6 5.7-5.2 8.7-.4.8-.7 1.6-1.1 2.4-.2.4-.3.8-.4 1.3-.1.4-.2.9-.3 1.3-.2 1.7-.4 3.4-.4 5.1-.1 3.4-.1 6.8.1 10.1.6-3.3 1-6.7 1.5-10 .2-1.6.4-3.3.7-4.9.3-1.5 1-3 1.7-4.4 1.5-3 3.2-5.8 4.7-8.9.4-.8.7-1.5 1.1-2.1.4-.6 1-1 1.7-1.3.7-.3 1.6-.4 2.4-.8.8-.3 1.6-.8 2.2-1.3-.8.4-1.6.6-2.4.8-.7.2-1.5.2-2.4.4z" fill="#048593" stroke-width="none" opacity="1" stroke="none"></path><path id="SvgjsPath12561" d="M173.1 180.5c-3.5-1.5-13.8-3-16.4-4.8 0 0 11.8 6.1 15.9 7.4 4.1 1.3 7.2.9 7.2.9s-3.2-2-6.7-3.5zm-32.6-24.6c0-3.2-2.4-7.4-4.1-9.5s-5.4-3.2-6.9-4.3c0 0 .9.9 2.6 2.8 1.7 1.9 5 6.7 5.6 10.6.6 3.9-2.6 11.3-4.8 14.1s-10.8 7.2-14.8 9.5c-3.9 2.4-7.5 5.6-12.1 8.2s-3 6.9-3 6.9.7-2.6 2.2-4.6 7.3-6.1 11.6-7.4c4.3-1.3 14.3-7.4 18.2-11.1 3.9-3.4 5.5-11.9 5.5-15.2zm3.2 2.2s1.9 3 3.2 4.8c1.3 1.7 2.4 5.9-1.5 12.4s-15 13.2-15 13.2 9.5-4.3 12.6-6.5c3-2.2 8.9-9.5 9.3-11.3.4-1.7-.2-4.8-1.5-6.9-1.2-2.2-6.2-4.8-7.1-5.7zm-59.3 22.6c-3.9-3-11.4-13.2-14.4-17.1-3-3.9-3.2-8-3.5-10.8 0 0-2.4 2.6-2.8 4.8s-.4 5.9 3.2 8.9c3.7 3 17.5 18 22.7 20.4 5.2 2.4 9.3 5.9 9.3 5.9s-1.1-2.6-2.4-3.9c-1.3-1.5-8.2-5.2-12.1-8.2zM60 185.4c3.9 1.5 14.5 6.3 17.3 7.4s15.1 3 15.1 3-11.8-3.9-15.8-5.6c-3.8-1.7-16.6-4.8-16.6-4.8z" fill="#40b4c1" stroke-width="none" opacity="1" stroke="none"></path></g><g id="svga-group-head" transform="matrix(1,0,0,1,0,0)"><g id="svga-group-ears-left-move" transform="matrix(1,0,0,1,0,0)"><g id="svga-group-ears-left"><path id="SvgjsPath10949" d="M68.41 84.17s-2.58-5.02-4.51-7.21-6.82-5.79-7.98-5.54-6.31 14.04-6.82 16.1c-.52 2.06 6.18 8.63 6.82 9.79.64 1.16.52 3.99.39 4.76s5.15 2.83 7.85 2.19c2.71-.65 10.05-9.54 4.25-20.09z" fill="#f0c7b1" stroke-width="none" opacity="1"></path><path id="SvgjsPath10950" d="M68.03 90.6s-5.92-8.11-9.91-10.82c-3.99-2.7-5.67 7.73-5.41 8.76s4.64 6.31 6.31 7.08 7.33-.64 9.01-5.02z" fill="#e1ac8f" stroke-width="none" opacity="1"></path><path id="SvgjsPath10951" d="M49.09 87.02c-.06.22-.14.41-.16.67 0 .24.03.48.11.7.29.87.78 1.62 1.26 2.35.49.73 1.03 1.43 1.58 2.12 1.09 1.38 2.25 2.71 3.34 4.05.13.17.27.34.36.49.09.15.15.33.21.52.11.38.16.8.19 1.22.06.84.05 1.71-.04 2.55l-.04.31c-.02.4.16.52.24.63.21.22.41.34.61.47.41.25.82.44 1.24.61.84.35 1.69.62 2.57.82.88.2 1.78.33 2.72.29.47-.02.95-.08 1.43-.3.26-.08.43-.23.64-.35.21-.12.39-.27.57-.42 2.81-2.39 4.39-5.88 4.78-9.42.13-.89.07-1.78.07-2.67-.12-.88-.17-1.77-.43-2.62-.36-1.73-1.1-3.35-1.9-4.91-.79-1.57-1.65-3.09-2.54-4.6-.45-.76-.92-1.5-1.44-2.22-.53-.72-1.15-1.36-1.79-1.97a28.138 28.138 0 0 0-4.17-3.28c-.38-.24-.76-.48-1.18-.67-.2-.1-.43-.18-.65-.27-.24-.06-.49-.15-.87-.07-.46.23-.48.42-.65.62-.13.2-.25.39-.36.59-.22.39-.42.79-.61 1.19-1.46 3.22-2.59 6.54-3.8 9.83l-.87 2.48-.42 1.26zm.13.69c.01-.17.09-.4.14-.6l.4-1.25c.28-.83.59-1.65.9-2.47.61-1.64 1.28-3.26 1.97-4.86.69-1.6 1.41-3.2 2.19-4.75.19-.39.39-.77.6-1.14.11-.18.22-.36.33-.53.06-.09.12-.15.17-.23.03-.04.08-.07.09-.08.03 0 .08 0 .14.01.09.02.17.04.26.07.18.07.37.14.56.24.37.18.75.39 1.12.6 1.47.89 2.86 1.95 4.2 3.05.66.56 1.3 1.14 1.85 1.8.55.66 1.06 1.38 1.55 2.1.97 1.45 1.83 2.98 2.66 4.52 1.61 3.08 2.43 6.67 1.76 10.07-.3 1.69-.84 3.33-1.65 4.84-.81 1.49-1.83 2.91-3.12 3.96-.16.14-.32.26-.49.36-.17.09-.34.24-.51.28-.31.16-.72.21-1.12.22-.81.03-1.66-.09-2.49-.26-.83-.18-1.65-.42-2.44-.73a9.77 9.77 0 0 1-1.13-.53c-.17-.1-.34-.22-.44-.31l-.03-.03.03-.26c.07-.91.08-1.8-.01-2.7a7.4 7.4 0 0 0-.26-1.36c-.08-.23-.16-.46-.31-.69a5 5 0 0 0-.43-.55c-1.16-1.35-2.37-2.59-3.51-3.92-.57-.66-1.12-1.33-1.64-2.03-.51-.7-1.01-1.43-1.28-2.23-.03-.22-.06-.42-.06-.61z" fill="#e1ac8f" stroke-width="none" opacity="1"></path><path id="SvgjsPath10952" d="M54.5 82.01c.34-.68.71-1.4 1.37-1.89.31-.25.82-.37 1.21-.16.39.19.65.53.87.83.92 1.24 1.7 2.57 2.38 3.94 1.31 2.76 2.4 5.61 3.21 8.56l-.08.03c-1.35-2.74-2.56-5.51-3.83-8.25-.62-1.37-1.2-2.78-1.98-4.06-.19-.33-.41-.61-.7-.78-.29-.16-.64-.09-.93.11-.56.44-.91 1.14-1.21 1.81-.55 1.39-.85 2.89-.94 4.35-.02.36-.02.73.04 1.06.02.17.06.31.11.43.09.16.16.32.26.47.37.63.8 1.24 1.25 1.84.45.6.9 1.2 1.38 1.78l.71.87c.06.07.12.13.18.2.2-.53.34-1.18.48-1.78l.43-2.13c-.6-.94-1.19-1.89-1.75-2.86l.07-.05c.75.89 1.48 1.79 2.19 2.7l.06.07-.01.12A29.5 29.5 0 0 1 59 91.5c-.14.77-.2 1.49-.53 2.33-.04.07-.05.11-.12.2-.03.04-.05.07-.13.13-.03.03-.07.05-.1.07-.06.03-.14.05-.21.05-.13.02-.29-.07-.35-.11l-.07-.06a.769.769 0 0 1-.13-.12c-.15-.15-.28-.29-.41-.43-.26-.29-.51-.58-.76-.88-.48-.6-.96-1.2-1.39-1.84-.44-.63-.86-1.28-1.24-1.97-.1-.17-.18-.36-.27-.54-.09-.24-.14-.46-.16-.67-.04-.42-.01-.82.03-1.21.18-1.57.68-3.04 1.34-4.44z" fill="#c27b55" stroke-width="none" opacity="1"></path></g></g><g id="svga-group-ears-right-move" transform="matrix(1,0,0,1,0,0)"><g id="svga-group-ears-right"><path id="SvgjsPath10953" d="M131.59 84.17s2.58-5.02 4.51-7.21 6.82-5.79 7.98-5.54 6.31 14.04 6.82 16.1c.52 2.06-6.18 8.63-6.82 9.79-.64 1.16-.52 3.99-.39 4.76.13.77-5.15 2.83-7.85 2.19-2.71-.65-10.05-9.54-4.25-20.09z" fill="#f0c7b1" stroke-width="none" opacity="1"></path><path id="SvgjsPath10954" d="M131.97 90.6s5.92-8.11 9.91-10.82c3.99-2.7 5.67 7.73 5.41 8.76-.26 1.03-4.64 6.31-6.31 7.08s-7.33-.64-9.01-5.02z" fill="#e1ac8f" stroke-width="none" opacity="1"></path><path id="SvgjsPath10955" d="m150.49 85.77-.87-2.48c-1.22-3.29-2.34-6.61-3.8-9.83-.19-.4-.39-.8-.61-1.19-.11-.2-.22-.39-.36-.59-.17-.2-.19-.39-.65-.62-.38-.08-.63.01-.87.07-.23.08-.45.16-.65.27-.42.19-.8.43-1.18.67-1.5.97-2.89 2.06-4.17 3.28-.64.61-1.26 1.25-1.79 1.97-.53.71-.99 1.46-1.44 2.22-.89 1.51-1.76 3.04-2.54 4.6-.8 1.56-1.54 3.17-1.9 4.91-.26.85-.3 1.74-.43 2.62 0 .89-.06 1.78.07 2.67.38 3.54 1.96 7.03 4.78 9.42.17.15.36.3.57.42.21.12.38.27.64.35.49.23.96.28 1.43.3.94.04 1.84-.09 2.72-.29.88-.2 1.74-.47 2.57-.82.42-.18.83-.37 1.24-.61.2-.13.4-.25.61-.47.08-.12.26-.23.24-.63l-.04-.31c-.09-.84-.09-1.71-.04-2.55.03-.42.09-.84.19-1.22.06-.19.12-.37.21-.52.1-.15.23-.33.36-.49 1.1-1.34 2.26-2.67 3.34-4.05.55-.69 1.08-1.39 1.58-2.12.49-.74.97-1.48 1.26-2.35.07-.22.11-.45.11-.7-.02-.27-.1-.45-.16-.67l-.42-1.26zm.19 2.53c-.27.8-.77 1.53-1.28 2.23s-1.07 1.37-1.64 2.03c-1.14 1.33-2.36 2.57-3.51 3.92-.14.17-.29.34-.43.55-.14.23-.23.46-.31.69a7.4 7.4 0 0 0-.26 1.36c-.09.9-.09 1.79-.01 2.7l.03.26c-.01.01-.01.02-.03.03-.1.1-.27.22-.44.31-.35.2-.73.38-1.13.53-.79.31-1.61.55-2.44.73-.83.17-1.67.29-2.49.26-.4-.01-.81-.07-1.12-.22-.17-.04-.34-.18-.51-.28-.17-.09-.33-.22-.49-.36-1.29-1.05-2.31-2.47-3.12-3.96-.81-1.5-1.35-3.15-1.65-4.84-.67-3.4.14-6.99 1.76-10.07.83-1.54 1.69-3.07 2.66-4.52.49-.72 1-1.43 1.55-2.1.55-.66 1.19-1.24 1.85-1.8 1.34-1.1 2.73-2.16 4.2-3.05.37-.22.74-.43 1.12-.6.19-.1.37-.17.56-.24.09-.03.17-.04.26-.07.07-.01.11-.01.14-.01.01.01.06.05.09.08.06.08.12.14.17.23.12.16.22.35.33.53.21.37.41.75.6 1.14.78 1.55 1.5 3.15 2.19 4.75.7 1.6 1.36 3.22 1.97 4.86.31.82.62 1.64.9 2.47l.4 1.25c.06.2.13.43.14.6.04.21.01.41-.06.61z" fill="#e1ac8f" stroke-width="none" opacity="1"></path><path id="SvgjsPath10956" d="M145.5 82.01c-.34-.68-.71-1.4-1.37-1.89-.31-.25-.82-.37-1.21-.16-.39.19-.65.53-.87.83-.92 1.24-1.7 2.57-2.38 3.94-1.31 2.76-2.4 5.61-3.21 8.56l.08.03c1.35-2.74 2.56-5.51 3.83-8.25.62-1.37 1.2-2.78 1.98-4.06.19-.33.41-.61.7-.78.29-.16.64-.09.93.11.56.44.91 1.14 1.21 1.81.55 1.39.85 2.89.94 4.35.02.36.01.73-.04 1.06-.02.17-.06.31-.11.43-.09.16-.16.32-.26.47-.37.63-.8 1.24-1.25 1.84-.45.6-.9 1.2-1.38 1.78l-.71.87c-.06.07-.12.13-.18.2-.2-.53-.34-1.18-.48-1.78l-.43-2.13c.6-.94 1.19-1.89 1.75-2.86l-.07-.05c-.75.89-1.48 1.79-2.19 2.7l-.06.07.01.12c.06.76.15 1.52.27 2.28.14.77.2 1.49.53 2.33.04.07.05.11.12.2.03.04.05.07.13.13.03.03.07.05.1.07.06.03.14.05.21.05.13.02.29-.07.35-.11l.07-.06c.05-.04.1-.08.13-.12.15-.15.28-.29.41-.43.26-.29.51-.58.76-.88.48-.6.96-1.2 1.39-1.84.44-.63.86-1.28 1.24-1.97.1-.17.18-.36.27-.54.09-.24.14-.46.16-.67.04-.42.01-.82-.03-1.21-.18-1.57-.68-3.04-1.34-4.44z" fill="#c27b55" stroke-width="none" opacity="1"></path></g></g><g id="svga-group-faceshape-wrap"><g id="svga-group-faceshape-single"><path id="SvgjsPath10730" d="M139.4 94.2c-2.5-8.8 1-25.8 1-25.8s.9-9.5 0-13.6c-2.2-10-6.3-16-15.2-20.8-9.3-5-25.23-4.31-25.23-4.31S84.1 29 74.8 34C66 38.9 62.03 44.89 59.83 54.89c-.9 4-.05 13.63-.05 13.63s3.79 17 1.29 25.9c-6.1 22.73-8.39 22.35 10.73 40.4 7.82 7.39 15.87 16.1 18.97 16.7s15.32.71 18.42.11 10.88-9.27 18.78-16.57c16.41-14.64 18.69-15.13 11.43-40.86z" fill="#f0c7b1" stroke-width="none" opacity="1" stroke="none"></path><path id="SvgjsPath10731" d="M71.8 134.82c7.82 7.39 15.87 16.1 18.97 16.7 3.1.6 15.32.71 18.42.11s10.88-9.27 18.78-16.57c16.41-14.64 18.69-15.13 11.43-40.86-2.5-8.8 1-25.8 1-25.8s.9-9.5 0-13.6c-2.2-10-6.3-16-15.2-20.8-9.3-5-25.23-4.31-25.23-4.31S84.1 29 74.8 34C66 38.9 62.03 44.89 59.83 54.89c-.9 4-.05 13.63-.05 13.63s3.79 17 1.29 25.9c-6.1 22.73-8.39 22.35 10.73 40.4zm-13.05-28.01c.22-.95.45-1.91.7-2.86l1.51-5.74c.48-1.92 1.04-3.82 1.38-5.86.61-4.03.2-7.98-.02-11.96-.27-3.97-1.42-7.99-2.07-11.91-.23-2.72-.39-5.47-.4-8.2 0-1.37.03-2.74.18-4.07.07-.67.21-1.31.37-1.99.15-.67.31-1.33.5-1.99 1.38-5.27 4.04-10.27 8.24-13.75 2.05-1.76 4.38-3.25 6.81-4.39 2.44-1.12 5.08-1.84 7.74-2.35 5.33-1 10.85-1.28 16.25-1.06h.08c3.75-.03 7.58.17 11.32.65 3.74.49 7.47 1.21 10.9 2.58.88.3 1.67.74 2.51 1.12.82.46 1.64.9 2.42 1.41 1.57.99 3.06 2.1 4.43 3.34 2.73 2.49 4.76 5.65 6.19 9.11.72 1.73 1.29 3.53 1.75 5.37.52 1.78.6 3.65.68 5.56.04 1.9.01 3.81-.06 5.72-.04.95-.09 1.92-.16 2.85-.12.94-.34 1.92-.49 2.87-.69 4.2-1.5 7.99-1.49 11.84.02 3.84-.06 7.32.94 11.06 1.02 3.83 2.45 7.73 3.19 11.62.36 1.94.68 3.89.81 5.85.1.98.01 1.96.03 2.93l-.18 1.45-.09.72-.19.7c-.88 3.81-3.63 6.77-6.46 9.44-2.88 2.67-5.95 5.18-8.96 7.78l-8.86 7.94c-1.47 1.31-2.67 2.72-4.18 3.97-1.5 1.24-2.33 2.37-3.88 3.3-.2.13-.38.2-.56.29-.09.04-.19.1-.27.13l-.22.07c-.12.06-.35.09-.57.12-.21.04-.45.05-.68.08-.93.09-1.91.13-2.89.16-1.95.06-3.92.06-5.88.02s-3.93-.11-5.86-.25c-.48-.04-.96-.08-1.42-.13-.24-.02-.44-.06-.66-.09-.24-.03-.31-.1-.47-.13-.69-.28-1.5-.8-2.26-1.34-3.09-2.23-5.01-4.94-7.93-7.57-2.91-2.66-5.81-5.38-8.7-8.08s-5.75-5.42-8.39-8.29c-.64-.73-1.32-1.43-1.88-2.2l-.88-1.13c-.28-.38-.51-.79-.77-1.18-.56-.77-.87-1.62-1.29-2.44-.25-.86-.59-1.71-.66-2.62-.19-.89-.1-1.83-.13-2.75.13-.94.15-1.88.36-2.83.16-.99.33-1.94.57-2.89z" fill="#c27b55" stroke-width="none" opacity="1" stroke="none"></path></g></g><g id="svga-group-mouth-single-move" transform="matrix(1,0,0,1,0,0)"><g id="svga-group-mouth-single"><path id="SvgjsPath10828" d="M88.64 129.04s3.92 4.45 11.7 5.26 12.4-6.49 12.4-6.49-2.95 7.35-11.7 7.67-12.08-5.85-12.4-6.44z" fill="#d19271" stroke-width="none" opacity="1" stroke="none"></path><path id="SvgjsPath10829" d="M86.4 126s2.7.4 4.5-1 4.6-4 5.5-5.5c.9-1.6 1.1 1.1 3.7 2s3.5-1.7 4-2.2 3.7 5.6 6.1 6.5c2.3.9 4.1 1.1 4.1 1.1s-2.4 1.6-6.1.7c-3.4-.8-5.6-1.9-7.2-1.8-1.5.1-5.2 1.7-8.5 1.4-3.2-.2-4.9-.5-6.1-1.2z" fill="#da7c87" stroke-width="none" opacity="1" stroke="none"></path><path id="SvgjsPath10830" d="M115.6 126.5c-1.3.1-2.4.7-3.8.8-1.3.1-2.6 0-3.8-.3-2.4-.5-4.6-1.5-7-1.4-2.5 0-4.8.9-7.3 1.1-2.7.2-5.5-.2-8-1.1-.3-.1-.6.4-.3.5 2.2 1.1 4.7 1.7 7.3 1.8 2.9.1 5.5-.9 8.3-1s5.4 1 8.2 1.3c2.1.2 5 .1 6.6-1.1.2-.3.1-.7-.2-.6z" fill="#cb5f6c" stroke-width="none" opacity="1" stroke="none"></path></g></g><g id="svga-group-eyes-left-move" transform="matrix(1,0,0,1,0,0)"><g id="svga-group-eyes-left"><g id="svga-group-eyesback-left"><path id="SvgjsPath11463" d="M80.2 74.2c7.5 0 13.5 5.8 13.5 13s-6 13-13.5 13-13.5-5.8-13.5-13 6-13 13.5-13z" fill="#ffffff" stroke-width="none" opacity="1"></path></g><g id="svga-group-eyesiriswrapper-left" transform="matrix(1,0,0,1,0,0)"><g id="svga-group-eyesiriscontrol-left" transform="matrix(1,0,0,1,0,0)"><g id="svga-group-eyesiris-left"><path id="SvgjsPath11649" d="M80.2 81.9c2.9 0 5.3 2.4 5.3 5.3s-2.4 5.3-5.3 5.3-5.3-2.4-5.3-5.3 2.4-5.3 5.3-5.3z" fill="#451908" stroke-width="none" opacity="1"></path><path id="SvgjsPath11650" d="M80.2 92.8c-3.1 0-5.6-2.5-5.6-5.5 0-3.1 2.5-5.6 5.5-5.6 3.1 0 5.6 2.5 5.6 5.5.1 3.1-2.4 5.6-5.5 5.6zm0-10.6c-2.8 0-5 2.3-5 5.1s2.3 5 5.1 5 5-2.3 5-5.1c-.1-2.8-2.4-5-5.1-5z" fill="#3e1404" stroke-width="none" opacity="1"></path><path id="SvgjsPath11651" d="M80.2 82.7c2.5 0 4.5 2 4.5 4.5s-2 4.5-4.5 4.5-4.5-2-4.5-4.5 2-4.5 4.5-4.5z" fill="#4d1f0d" stroke-width="none" opacity="1"></path><path id="SvgjsPath11652" d="M80.2 84.3c1.6 0 2.9 1.3 2.9 2.9s-1.3 2.9-2.9 2.9-2.9-1.3-2.9-2.9 1.3-2.9 2.9-2.9z" fill="#000000" stroke-width="none" opacity="1"></path><path id="SvgjsPath11653" d="M78.9 84.3c.6 0 1 .4 1 1s-.4 1-1 1-1-.4-1-1 .4-1 1-1zm3.3 4.6c.2 0 .4.2.4.4s-.2.4-.4.4-.4-.2-.4-.4.2-.4.4-.4z" fill="#ffffff" stroke-width="none" opacity="1"></path></g></g></g><g id="svga-group-eyesfront-left"><path id="SvgjsPath11471" d="M80.2 73.7c-7.8 0-14.1 6.1-14.1 13.6s6.3 13.6 14.1 13.6 14.1-6.1 14.1-13.6S88 73.7 80.2 73.7zm0 21.9c-5.5 0-10.7-2.8-10.8-3.7-.2-1 .9-4.2 3.2-6.8 2.4-2.6 8-3.5 12.8-1.5s5.9 8 5.9 8c.1 1.8-5.6 4-11.1 4z" fill="#f0c7b1" stroke-width="none" opacity="1"></path><path id="SvgjsPath11472" d="M89.4 86.9c.7 0 3.1 0 2.4-.2-1.2-.4-5.6-3.8-6.8-4.3s-5.5-1.3-6.2-1.3-7.1 2.8-7.7 3.2c-.6.4-2.2 6-2.6 6.3-.2.2.4.5.8.7 0 .1 0 .2-.1.3v.2c0 .1.1.2.1.3.1.2.2.3.3.4.2.2.5.4.7.6.5.3 1 .6 1.6.9 2.1 1 4.4 1.6 6.8 1.8 2.4.2 4.7-.1 7-.7 1.1-.3 2.2-.7 3.3-1.2.5-.3 1-.5 1.5-.9l.6-.6c.2-.2.3-.5.3-.8-.2-1.1-.7-2.2-1.2-3.3-.3-.4-.5-.9-.8-1.4zm1.6 5.5-.6.6c-.5.3-1 .6-1.5.8-1.1.4-2.2.8-3.3 1-2.2.4-4.6.7-6.8.5-2.3-.2-4.5-.8-6.6-1.7-.5-.2-1-.5-1.5-.8-.2-.2-.5-.3-.7-.5-.1-.1-.2-.2-.2-.3 0-.1 0-.1-.1-.1v-.2c0-.2 0-.4.1-.6.4-1 1.6-3.8 2.5-5 1.2-1.5 3.6-3.3 6.9-3.3 1.7 0 3.2.2 4.5.5.5.2 1.1.3 1.6.6 1.1.4 2 1.1 2.8 1.8 1.6 1.6 2.8 3.7 3.3 5.9-.1.3-.2.6-.4.8z" fill="#655e5e" stroke-width="none" opacity="1"></path></g></g></g><g id="svga-group-eyes-right-move" transform="matrix(1,0,0,1,0,0)"><g id="svga-group-eyes-right"><g id="svga-group-eyesback-right"><path id="SvgjsPath11464" d="M119.8 74.2c7.5 0 13.5 5.8 13.5 13s-6 13-13.5 13-13.5-5.8-13.5-13 6-13 13.5-13z" fill="#ffffff" stroke-width="none" opacity="1"></path></g><g id="svga-group-eyesiriswrapper-right" transform="matrix(1,0,0,1,0,0)"><g id="svga-group-eyesiriscontrol-right" transform="matrix(1,0,0,1,0,0)"><g id="svga-group-eyesiris-right"><path id="SvgjsPath11654" d="M119.8 82.5c2.6 0 4.7 2.1 4.7 4.7s-2.1 4.7-4.7 4.7-4.7-2.1-4.7-4.7 2.1-4.7 4.7-4.7z" fill="#3e1404" stroke-width="none" opacity="1"></path><path id="SvgjsPath11655" d="M119.8 92.1c-2.7 0-4.9-2.2-4.9-4.9s2.2-4.9 4.9-4.9 4.9 2.2 4.9 4.9-2.2 4.9-4.9 4.9zm0-9.3c-2.4 0-4.4 2-4.4 4.4s2 4.4 4.4 4.4 4.4-2 4.4-4.4c0-2.4-2-4.4-4.4-4.4z" fill="#2e0d00" stroke-width="none" opacity="1"></path><path id="SvgjsPath11656" d="M119.8 83.2c2.2 0 4 1.8 4 4s-1.8 4-4 4-4-1.8-4-4 1.8-4 4-4z" fill="#451908" stroke-width="none" opacity="1"></path><path id="SvgjsPath11657" d="M119.8 83.8c1.9 0 3.4 1.5 3.4 3.4s-1.5 3.4-3.4 3.4-3.4-1.5-3.4-3.4 1.5-3.4 3.4-3.4z" fill="#4d1f0d" stroke-width="none" opacity="1"></path><path id="SvgjsPath11658" d="M119.8 84.7c1.4 0 2.5 1.1 2.5 2.5s-1.1 2.5-2.5 2.5-2.5-1.1-2.5-2.5 1.1-2.5 2.5-2.5z" fill="#000000" stroke-width="none" opacity="1"></path><path id="SvgjsPath11659" d="M118.7 84.7c.5 0 .9.4.9.9s-.4.9-.9.9-.9-.4-.9-.9.4-.9.9-.9zm2.9 4c.2 0 .3.1.3.3s-.1.3-.3.3-.3-.1-.3-.3.1-.3.3-.3z" fill="#ffffff" stroke-width="none" opacity="1"></path></g></g></g><g id="svga-group-eyesfront-right"><path id="SvgjsPath11473" d="M119.8 73.7c-7.8 0-14.1 6.1-14.1 13.6s6.3 13.6 14.1 13.6 14.1-6.1 14.1-13.6-6.3-13.6-14.1-13.6zm.3 20.6c-5.5 0-11.3-1.9-11.1-3.4 0 0 1.2-5.1 5.9-6.9s9.6-.7 12 1.5c2.4 2.3 4.2 4.8 4 5.6-.1.8-5.3 3.2-10.8 3.2z" fill="#f0c7b1" stroke-width="none" opacity="1"></path><path id="SvgjsPath11476" d="M131.9 90c-.3-.3-3.5-4-4.1-4.3s-4-3.2-4.8-3.2-6.4 0-7.6.4-4.2 2.8-4.7 3.4c-.3.4.2.2.7 0-.4.5-.8 1-1.1 1.5-.6 1-1 2-1.3 3 0 .3.1.6.3.8.2.2.4.4.7.5.5.3 1 .5 1.5.8 1 .4 2.1.8 3.2 1 2.2.5 4.4.8 6.6.7 2.2-.1 4.4-.6 6.5-1.3 1-.4 2.1-.8 3-1.5l.3-.3c.1-.1.1-.2.1-.3v-.3c0-.1 0-.1-.1-.2.4-.2 1-.4.8-.7zm-1.2 1.1c-.1.1-.1.2-.2.2-.8.6-1.9 1-2.9 1.4-2.1.7-4.2 1.1-6.4 1.3-2.2.1-4.3-.1-6.5-.4-1.1-.2-2.1-.4-3.2-.8-.5-.2-1-.4-1.5-.7-.2-.1-.5-.3-.7-.5-.2-.2-.3-.4-.3-.7.6-2.1 1.9-4 3.6-5.3.9-.7 1.8-1.1 2.8-1.5.9-.3 1.7-.5 2.6-.6.2 0 .5-.1.7-.1h.7c1.8-.1 3.7.2 5.3.9 1.3.8 2.3 1.8 2.9 2.5.9 1 2.3 2.9 2.8 3.7.1.2.1.3.1.5.2-.1.2 0 .2.1z" fill="#655e5e" stroke-width="none" opacity="1"></path></g></g></g><g id="svga-group-facehighlight-single"></g><g id="svga-group-eyebrows-left-move" transform="matrix(1,0,0,1,0,0)"><g id="svga-group-eyebrows-left-rotate" transform="matrix(1,1.7453292519943295e-9,-1.7453292519943295e-9,1,1.2391838311032188e-7,-1.3753196981269866e-7)"><g id="svga-group-eyebrows-left"><path id="SvgjsPath11699" d="M92.8 69.5s-.2 3.9-1 7.1c0 0-16.1-4.6-18-4.8-1.9-.2-8.4 4.1-8.4 4.1l6.5-9.8 3.8.3-.6-.9 8 1.9 7.5 1.2.5 2.8.4-2.8.5 2.8.8-1.9z" fill="#2a232b" stroke-width="none" opacity="1"></path><path id="SvgjsPath11700" d="m92.8 69.5-.1.1c-.1.3-.2.5-.4.8-.1.2-.2.4-.3.7l-.4-2.5-.2-.9-.2.9-.3 1.6-.3-1.6v-.2h-.2l-3.9-.7-1.9-.3c-.6-.1-1.3-.2-1.9-.3-2.6-.6-5.1-1.2-7.7-1.8l-.8-.2.5.8.3.1-3.1-.2h-.2l-.1.1c-1.1 1.7-2.1 3.3-3.2 5l-3.2 5-.4.6.6-.4c1.9-1.3 3.9-2.5 6-3.4.5-.2 1.1-.4 1.6-.6.3-.1.5-.1.8-.1l.4.1.4.1c1.1.3 2.3.6 3.4.9 2.3.7 4.5 1.3 6.8 1.9 2.3.6 4.5 1.2 6.8 1.8l.2.1v-.2c.3-1.2.4-2.4.6-3.6.1-.6.1-1.2.2-1.8 0-.3 0-.6.1-.9V69.6l.1-.1c0 .1 0 0 0 0zm-.1.4-.1.4-.1.9-.3 1.8c-.2 1.1-.4 2.2-.7 3.3-2.2-.7-4.4-1.3-6.6-2-2.3-.7-4.5-1.3-6.8-1.8-1.1-.3-2.3-.5-3.4-.8l-.4-.1-.4-.1c-.3 0-.6 0-.9.1-.6.2-1.1.4-1.6.6-1.9.9-3.7 1.9-5.5 3.1l2.9-4.2c1.1-1.6 2.2-3.2 3.2-4.7l3.6.3.7.1-.4-.7-.1-.1c2.3.6 4.6 1.1 6.9 1.6l3.9.6 3.7.5.5 2.5.2 1.2.2-1.2.3-2 .4 1.9.1.3.1-.3.3-.9c.1-.3.2-.6.3-.8v.5zm-2.9 4.7c0-.8-.1-1.7-.2-2.5-.1-.4-.1-.8-.2-1.2s-.2-.8-.4-1.2c.1.4.1.8.1 1.2 0 .4.1.8.2 1.2.1.8.3 1.7.5 2.5zm-1.2-1.7c-.2-.3-.3-.7-.5-1l-.5-1-1-1.9-.2-.5v.6c0 1.6 0 3.2.1 4.8l.3-.1c-.3-.4-.6-.9-.9-1.3l-.9-1.2c-.3-.4-.6-.8-1-1.2-.3-.4-.7-.8-1.1-1.1.3.4.7.8 1 1.2l.9 1.2c.3.4.6.8.9 1.3.3.4.6.9.8 1.3l.3.5v-.6c0-1.6-.1-3.2-.1-4.8l-.2.1 1.1 1.9.6.9c0 .3.2.6.4.9z" fill="#1b141c" stroke-width="none" opacity="1"></path></g></g></g><g id="svga-group-eyebrows-right-move" transform="matrix(1,0,0,1,0,0)"><g id="svga-group-eyebrows-right-rotate" transform="matrix(1,1.7453292519943295e-9,-1.7453292519943295e-9,1,1.2705996255135688e-7,-2.123193070246998e-7)"><g id="svga-group-eyebrows-right"><path id="SvgjsPath11701" d="M107.2 73.2s.9 3.1 2.3 5.5c0 0 14.9-6.1 16.8-6.5 1.9-.4 9 2 9 2l-8.2-6.9-3.6.8.4-.8-7.5 2.7-7.1 2v2.3l-.9-2.2v2.3l-1.2-1.2z" fill="#2a232b" stroke-width="none" opacity="1"></path><path id="SvgjsPath11702" d="m135.4 74.1-4-3.5c-1.3-1.2-2.7-2.3-4.1-3.5l-.1-.1h-.1l-3 .6.1-.2.4-.7-.8.3c-2.4.8-4.8 1.7-7.2 2.6l-1.8.6-1.8.6-3.7 1.1h-.2v1.5l-.6-1.3-.3-.7v.7l.1 2c-.1-.2-.3-.3-.4-.5-.2-.2-.3-.4-.5-.6l-.1-.1V73.2l.1.2.1.4c.1.2.2.5.2.7.2.5.3.9.5 1.4.3.9.8 1.9 1.2 2.8l.1.2.2-.1c2.1-.8 4.2-1.6 6.4-2.5 2.1-.8 4.2-1.7 6.3-2.5 1.1-.4 2.1-.8 3.2-1.2l.4-.1.4-.1c.3-.1.5-.1.8-.1.6 0 1.1.1 1.7.2 2.2.4 4.4 1.1 6.6 1.8l.6.2-.7-.4zm-8.3-2.1c-.3 0-.6 0-.9.1l-.4.1-.4.1c-1.1.3-2.2.7-3.2 1.1-2.2.8-4.3 1.6-6.4 2.4-2.1.8-4.1 1.7-6.1 2.6-.5-.8-.9-1.7-1.2-2.5-.2-.4-.4-.9-.6-1.4l-.3-.7-.1-.3-.1-.2v-.1c.2.2.3.4.4.6.2.2.3.4.5.7l.2.2V72.8l.6 1.5.4.9v-3.1l3.6-1c1.2-.3 2.5-.7 3.7-1 2.2-.8 4.3-1.5 6.5-2.3v.1l-.3.6.7-.2 3.5-.8c1.3 1.1 2.7 2.2 4 3.3l3.6 2.9c-2-.6-3.9-1.2-6-1.6-.6.1-1.1 0-1.7-.1zm-16 4.7c-.2-.7-.2-1.3-.2-2v-1c0-.3 0-.7.2-1 0 .3.1.7.1 1s.1.7.1 1c-.1.7-.1 1.4-.2 2zm.9-1.5c.1-.3.2-.6.3-.8l.3-.8.6-1.7.2-.4.1.4c.3 1.3.5 2.6.8 3.8h-.3l.6-1.2c.2-.4.4-.8.7-1.1.2-.4.5-.7.7-1.1s.5-.7.8-1c-.3.3-.5.7-.7 1.1-.2.4-.4.7-.7 1.1l-.6 1.2-.6 1.2-.2.4-.1-.4c-.3-1.3-.5-2.6-.8-3.8h.3l-.7 1.6-.4.8c0 .2-.1.4-.3.7z" fill="#1b141c" stroke-width="none" opacity="1"></path></g></g></g><g id="svga-group-beardwrap"><g id="svga-group-beard-single-move" transform="matrix(1,0,0,1,0,0)"><g id="svga-group-beard-single"><path id="SvgjsPath12463" d="M143.3 91.1c-.8-5.4-2.8-8.6-5.4-8.4-2.6.2-2.8 3.5-3 10.8-.7 5.9-1.6 11.1-3.8 14.9s-3.4 8.8-6.3 8.7c-2-.1-.7-3.1-6-4.8-4.5-1.4-7.6.5-11.8 1.7-5.5 1.6-3 1.4-7.3 1.7-.4 0-3.5-.4-8.8-2.3s-13.3-4.1-13.8 3.1c-.5 7.2-9.1-6.7-10.1-14.6S64.6 88.8 63.6 86c-1-2.8-4-4-5.2-1.7s-2.8 14.1-2.8 25.6c0 11.4 1.7 18.1 3.5 23.5 1.8 5.4 23.5 21.9 27.7 25.4s23.7 2.8 28.1 1.2c4.4-1.6 22.9-18.4 25.9-22.7 5.8-8.2 3.3-40.7 2.5-46.2zm-28.7 41.8c-2.7 4.8-5 7.5-6.4 8.3-1.5.8-4.2 1.1-5-.1s-.4-3.9-.4-3.9c-2.3 0-6.2-.4-6.2-.4s.3 1.7-.2 3.5-3.8 1.8-6.1 0-6.8-8.9-8.8-12.7-3.3-8.1-1.5-9.2 4.2 1.3 9.1 2.4 10 0 10 0c5.6 1.2 10-.1 12.7-.6 4.1-.8 7.2-3.9 8.3-2s-2.7 10-5.5 14.7z" fill="#2a232b" stroke-width="none" opacity="1"></path><path id="SvgjsPath12464" d="M144.7 111.3c-.1-6.7-.4-13.5-1.3-20.1-.3-1.9-.7-3.8-1.6-5.5-.4-.8-1-1.7-1.7-2.3-.8-.6-1.8-.9-2.8-.6-1 .3-1.5 1.3-1.8 2.2-.3.9-.4 1.9-.5 2.8-.2 1.9-.2 3.8-.3 5.7-.4 3.3-.9 6.7-1.8 9.9-.5 1.6-1.1 3.2-1.9 4.6-.9 1.4-1.6 3-2.3 4.5-.4.8-.7 1.5-1.2 2.2-.4.7-.9 1.3-1.6 1.7-.3.2-.7.3-1 .3-.4 0-.7 0-.9-.3-.4-.5-.7-1.4-1.3-2.1-1.1-1.4-2.8-2.2-4.5-2.7-1.7-.5-3.5-.5-5.2-.1-1.7.4-3.3 1-4.9 1.5-1.6.5-3.2 1-4.8 1.6-.4.1-.8.3-1.1.3-.4.1-.8.1-1.2.1l-1.3.1c-.3 0-.8-.1-1.2-.1-1.6-.3-3.2-.7-4.8-1.2-1.6-.5-3.2-1.1-4.8-1.6-1.6-.5-3.3-.9-5-1.1-.4 0-.9-.1-1.3-.1s-.9 0-1.3.1c-.4 0-.9.2-1.3.3-.4.2-.8.3-1.2.6-.8.5-1.3 1.3-1.7 2.1-.1.4-.3.8-.4 1.3-.1.4-.1.9-.2 1.3-.1.8-.3 1.7-1 1.4-.7-.2-1.3-.8-1.8-1.4-1.1-1.2-2-2.7-2.8-4.1-1.6-2.9-3-6-3.7-9.3-.3-1.6-.5-3.3-.8-5-.3-1.7-.6-3.3-.9-5s-.8-3.3-1.2-4.9c-.2-.8-.5-1.6-.7-2.4-.3-.8-.7-1.6-1.4-2.2-.6-.6-1.5-1-2.4-.9-.5.1-.9.3-1.2.6-.3.3-.5.7-.7 1.1-.6 1.6-.8 3.3-1.1 4.9-.5 3.3-.9 6.7-1.2 10-.5 6.7-.7 13.5 0 20.2.3 3.4 1 6.7 1.8 10 .2.8.5 1.6.7 2.4l.4 1.2.5.7.3.6c.9 1.5 2.1 2.8 3.2 4 2.3 2.5 4.9 4.7 7.4 6.9s5.1 4.4 7.7 6.5c2.6 2.1 5.2 4.2 7.9 6.3.3.3.6.5 1 .8.4.2.8.5 1.2.7.4.2.8.3 1.2.5l1.2.3c1.7.4 3.4.6 5.1.8 3.4.3 6.8.3 10.2.2 1.7-.1 3.4-.2 5.1-.4.8-.1 1.7-.2 2.5-.4s1.7-.3 2.5-.7c1.6-.8 2.9-1.8 4.3-2.8 1.3-1 2.7-2.1 4-3.2 2.6-2.2 5.1-4.4 7.6-6.7s4.9-4.6 7.2-7.1c.6-.6 1.1-1.2 1.7-1.9.3-.3.5-.7.8-1 .2-.4.5-.7.7-1.1.8-1.6 1.2-3.2 1.6-4.9.7-3.3 1-6.7 1.1-10.1.2-3.3.2-6.7.2-10zm-.6 10c-.2 3.3-.6 6.7-1.3 10-.4 1.6-.9 3.2-1.6 4.7-.7 1.4-2 2.6-3.1 3.8-2.3 2.4-4.8 4.7-7.2 7s-5 4.5-7.6 6.6c-1.3 1.1-2.6 2.1-3.9 3.1-1.3 1-2.7 2-4.1 2.7-1.4.6-3.1.8-4.8 1-1.7.2-3.3.3-5 .4-3.3.1-6.7.1-10-.2-1.7-.1-3.3-.4-4.9-.7l-1.2-.3c-.4-.1-.7-.3-1.1-.4-.4-.1-.7-.4-1-.6-.3-.2-.7-.5-1-.8-2.7-2.1-5.3-4.1-7.9-6.3-5.2-4.2-10.4-8.5-15.1-13.3-1.2-1.2-2.3-2.4-3.2-3.8l-.3-.5-.2-.5-.4-1.2c-.3-.8-.5-1.6-.7-2.4-.9-3.2-1.5-6.5-1.9-9.8-.8-6.7-.7-13.4-.2-20.1.2-3.3.6-6.7 1.1-10 .3-1.7.5-3.3 1.1-4.9.2-.8.8-1.4 1.6-1.5.8-.1 1.6.3 2.2.8 1.2 1.1 1.5 2.9 2 4.4.4 1.6.8 3.2 1.2 4.9.3 1.6.6 3.3.9 5 .3 1.7.4 3.3.8 5 .8 3.3 2.1 6.4 3.7 9.4.8 1.5 1.7 2.9 2.8 4.2.6.6 1.1 1.3 2.1 1.7.2.1.5.1.8 0l.3-.3c.1-.1.2-.2.2-.3.2-.4.3-.9.4-1.3.1-.4.1-.8.2-1.2 0-.4.2-.8.3-1.1.3-.7.8-1.4 1.5-1.8.3-.2.7-.3 1.1-.5.4-.1.8-.2 1.2-.2.4-.1.8-.1 1.2-.1.4 0 .8 0 1.2.1 1.6.2 3.2.6 4.8 1.1 1.6.5 3.2 1.2 4.8 1.7 1.6.5 3.2 1 4.9 1.3.4.1.8.2 1.3.1l1.3-.1c.4 0 .8-.1 1.3-.1.5-.1.9-.2 1.3-.4 1.6-.6 3.2-1 4.8-1.5 1.6-.5 3.2-1.2 4.8-1.5 1.6-.4 3.2-.4 4.8.1 1.6.4 3.1 1.1 4.1 2.3.2.3.4.6.7 1 .2.4.4.8.7 1.2.4.4 1 .6 1.4.5.5 0 .9-.2 1.3-.4.8-.5 1.3-1.3 1.8-2 .4-.7.8-1.5 1.2-2.3.7-1.5 1.4-3.1 2.2-4.5.8-1.5 1.4-3.1 1.8-4.8.9-3.3 1.3-6.6 1.7-10 0-1.9.1-3.8.2-5.7.1-.9.2-1.9.5-2.8.2-.9.8-1.8 1.7-2.1.9-.3 1.9 0 2.6.6.8.6 1.3 1.4 1.7 2.2.9 1.7 1.3 3.6 1.6 5.5.4 3.3.6 6.7.8 10.1.2 3.4.3 6.7.3 10.1-.3 3-.4 6.4-.6 9.7zm-23.5-2.5c0-.2-.1-.5-.2-.7-.2-.2-.3-.4-.5-.5-.4-.3-.9-.3-1.2-.2-1.1-.2-2.1-.4-3-.7-.9-.3-1.8-.8-2.7-1.4.5 1 1.4 1.8 2.4 2.2.7.3 1.5.4 2.3.3-.1.1-.3.1-.4.2-1.5.6-2.9 1.3-4.3 1.8-.7.2-1.5.4-2.2.5-.4.1-.9.2-1.3.3-.8-.3-1.6-.7-2.3-1.1-.9-.6-1.6-1.3-2.4-2.2.2 1.1 1 2.1 2 2.8.5.3 1.1.6 1.7.7-3 .6-6.2.6-9.2-.1h-.2c-.3.1-.5.1-.8.1.7-.3 1.2-.9 1.7-1.5.6-.8 1-1.9.9-2.9-.5.9-.9 1.7-1.5 2.4-.5.7-1.1 1.3-1.7 2-1.8.3-3.6.4-5.3.3.9-.2 1.8-.7 2.6-1.3.9-.8 1.7-1.9 2-3.1-.8.9-1.6 1.8-2.5 2.5-.8.7-1.7 1.2-2.7 1.8-1.2-.1-2.3-.3-3.5-.6 1.1-.1 2.2-.6 3.2-1.2 1.2-.7 2.2-1.8 2.8-3-1.1.9-2.1 1.7-3.2 2.4-1 .6-2.1 1.2-3.2 1.7-.8-.2-1.5-.5-2.2-.8-1.1-.4-2.1-.9-3.3-1.3-.4-.1-.9-.2-1.3-.2.7-.3 1.3-.7 1.8-1.2.8-.7 1.4-1.5 1.7-2.5-.8.7-1.5 1.3-2.2 2-.7.6-1.4 1.2-2 1.8-.6.2-1.1.7-1.2 1.2-.4 1.3-.1 2.4.2 3.6.3 1.1.8 2.2 1.2 3.3 1 2.1 2.2 4.1 3.4 6.1 1.2 2 2.5 3.9 3.9 5.8.7.9 1.4 1.9 2.4 2.6 1 .7 2.1 1.2 3.3 1.4.6.1 1.2.1 1.9-.2.6-.2 1.3-.7 1.4-1.4.3-1 .4-2 .3-3.1 1.8.2 3.5.3 5.3.3 0 .7-.1 1.4.1 2.1.1.4.2.9.4 1.3s.7.8 1.1.9c.9.3 1.8.2 2.6.1.8-.2 1.7-.5 2.3-1.1 1.3-1.1 2.2-2.5 3.2-3.9.9-1.4 1.8-2.8 2.6-4.2 1.6-2.7 3-5.5 4.3-8.4.6-1.4 1.2-2.9 1.5-4.5 0-.4.1-.8 0-1.2zm-.7 1.1c-.2 1.5-.7 3-1.3 4.5-1.1 2.9-2.6 5.7-4.1 8.5-.8 1.4-1.7 2.8-2.7 4.2-.9 1.3-2 2.7-3.3 3.6-.6.5-1.4.7-2.2.9-.8.1-1.6.1-2.3-.2-.3-.1-.6-.3-.7-.7-.1-.3-.2-.7-.2-1.1-.1-.8-.1-1.6 0-2.4l.1-.4h-.4c-2 0-4.1-.3-6.2-.4l-.6-.1.1.6c.2 1.1.1 2.2-.2 3.2-.2.9-1.4 1.2-2.4 1.1-1.1-.1-2.1-.5-3-1.1-.9-.7-1.6-1.6-2.3-2.4-1.4-1.8-2.7-3.7-3.9-5.7-1.2-2-2.4-4-3.3-6.1-.5-1.1-.8-2.1-1.1-3.2-.3-1.1-.5-2.3-.1-3.3.2-.5.6-.8 1-.9.5-.1 1 0 1.5.2 1.1.4 2.1.9 3.2 1.3 2.2.9 4.5 1.6 6.8 1.7 2.3.2 4.6 0 6.9-.4 3.1.7 6.4.6 9.5 0 .8-.1 1.6-.3 2.3-.5.8-.2 1.6-.3 2.3-.6 1.5-.5 2.9-1.3 4.3-1.9.7-.3 1.5-.6 1.9-.3.5.4.5 1.2.4 1.9zm-33.1-2.3c1-.5 2-1.3 2.5-2.3-1 .6-1.9 1.2-2.9 1.6-1 .5-2 .9-3 1.3 1.2.2 2.4-.1 3.4-.6zm-7.9-2.2c.7-1.1 1.5-2 2.5-2.9-1.3.4-2.4 1.4-3.2 2.5-.7 1.2-1.2 2.6-1 3.9.5-1.2 1-2.4 1.7-3.5zm42.9 2.9c.5 2.1-.1 4.5-1.4 6.3 1.8-1.5 2.7-4.1 2.2-6.5s-2.4-4.4-4.7-5c1.9 1.2 3.4 3.1 3.9 5.2zm-43 13.8c-.4-1.8-.9-3.4-1.3-5.2-.4-1.7-.7-3.4-1.1-5.2-.2 1.8 0 3.6.4 5.4.3 1.8 1 3.5 2 5zm41.5 4.9c.4-2.2.8-4.4 1.3-6.5.5-2.1 1.1-4.3 1.8-6.4-1.2 1.9-2 4.1-2.5 6.2-.6 2.1-.8 4.4-.6 6.7zm-35.6 9.4c-.6-1.8-1-3.7-1.4-5.5-.3-1.9-.5-3.8-.7-5.7-.2 1.9-.1 3.9.1 5.8s.7 3.8 1.2 5.7c.6 1.9 1.3 3.6 2.3 5.3.9 1.7 2 3.3 3.3 4.8-1-1.6-1.9-3.3-2.8-5-.7-1.8-1.5-3.6-2-5.4zm10.9 10.3c0 .8.4 1.4.8 2.1.4.6 1 1.1 1.7 1.4-.3-.7-.7-1.2-1.1-1.8-.4-.6-.8-1.2-1.4-1.7zm-5.3-13.4c.3 1.8.9 3.5 1.7 5.1.8 1.6 1.8 3.1 3.1 4.4-.8-1.6-1.7-3.2-2.5-4.8-.7-1.5-1.4-3.1-2.3-4.7zm6 6.2c-.3-.7-.6-1.4-1.2-1.9 0 .8.2 1.5.5 2.2.3.7.6 1.4 1.2 1.9 0-.8-.2-1.5-.5-2.2zm1.4-9.1c-.3 1.2-.2 2.5 0 3.7.2 1.2.7 2.4 1.4 3.4-.2-1.2-.4-2.4-.6-3.5-.3-1.3-.5-2.4-.8-3.6zm3.1 15.1c.1 1 .6 1.9 1.1 2.8.5.8 1.2 1.6 2.1 2.1-.4-.9-.9-1.7-1.4-2.5-.6-.9-1.1-1.7-1.8-2.4zm6.4-4.7c.9-1.3 1.5-2.7 1.9-4.2.4-1.5.7-3 .6-4.6-.5 1.5-.9 2.9-1.3 4.4-.4 1.4-.8 2.9-1.2 4.4zm6.7 5.3c.8-1.9 1.4-3.9 2-5.8.5-2 1-4 1.2-6-.8 1.9-1.4 3.9-2 5.8-.5 2-.9 4-1.2 6zm15.6-15c-.3 1.2-.7 2.5-1.1 3.7-.4 1.2-.9 2.4-1.5 3.6-.6 1.2-1.2 2.3-1.8 3.4.9-1 1.7-2 2.3-3.2.7-1.1 1.2-2.3 1.7-3.6.4-1.2.8-2.5 1-3.8.2-1.3.3-2.6.3-3.9-.3 1.3-.5 2.6-.9 3.8zm2.1-21.4c-.3 2.3-.9 4.5-1.5 6.8 1.2-2 1.9-4.3 2.2-6.7.3-2.3.2-4.8-.4-7 .1 2.3 0 4.6-.3 6.9zm-56.7 19.4c-.7-2-1.3-4-1.8-6s-1-4.1-1.4-6.2c.1 2.1.4 4.2.8 6.3.4 2.1 1 4.1 1.7 6.1s1.5 4 2.5 5.9c1 1.9 2 3.7 3.3 5.4-1-1.9-1.9-3.8-2.8-5.7-.9-1.9-1.6-3.8-2.3-5.8zm-6.1-2.5c-.7-1.9-1.3-3.8-1.8-5.7a56 56 0 0 1-1.2-5.9c0 2 .2 4.1.6 6 .4 2 1 4 1.7 5.9.7 1.9 1.6 3.8 2.7 5.5 1 1.8 2.2 3.4 3.6 4.9-1.1-1.7-2.1-3.4-3.1-5.2-1-1.8-1.8-3.6-2.5-5.5zm-4-4c-.5-1.6-.9-3.2-1.2-4.9-.3-1.6-.6-3.3-.9-5-.1 1.7.1 3.4.3 5.1.2 1.7.6 3.4 1.1 5 .5 1.6 1.1 3.2 1.8 4.8.7 1.5 1.6 3 2.6 4.4-.7-1.5-1.4-3.1-2-4.6-.7-1.6-1.2-3.2-1.7-4.8zm-4.6-8.6c-.2-1.6-.3-3.2-.3-4.9 0-1.6 0-3.3.1-4.9-.4 1.6-.6 3.3-.7 4.9-.1 1.7 0 3.3.2 5 .2 1.7.5 3.3 1 4.9s1 3.1 1.8 4.6c-.5-1.6-.9-3.2-1.2-4.8-.4-1.6-.7-3.2-.9-4.8zm-2.5-16.2c-.1 1.5-.1 3 .2 4.5.3-1.5.4-3 .5-4.4.1-1.5.2-3 0-4.5-.4 1.4-.6 2.9-.7 4.4zm80.9 12c0 1.6.1 3.2 0 4.8-.1 1.6-.1 3.2-.3 4.8-.1 1.6-.3 3.2-.6 4.8-.2 1.6-.5 3.2-.9 4.8.6-1.5 1.1-3.1 1.4-4.6.4-1.6.6-3.2.7-4.8.1-1.6.2-3.2.1-4.9.1-1.7-.1-3.3-.4-4.9zm2.2-8.9c-.6-2.4-1.4-4.8-2.4-7 .7 2.4 1.3 4.7 1.8 7.1.5 2.4.9 4.8 1.1 7.2.3 2.4.4 4.9.4 7.3 0 2.4-.1 4.9-.3 7.4.5-2.4.8-4.9.9-7.3.1-2.5 0-4.9-.2-7.4-.3-2.5-.7-4.9-1.3-7.3zm.7-8.9c-.4-1.4-.7-2.8-1.2-4.2s-.9-2.7-1.5-4.1l.9 4.2c.3 1.4.7 2.8 1 4.2.4 1.4.7 2.8 1.1 4.2s.7 2.8 1.2 4.2c-.1-1.4-.4-2.9-.6-4.3-.2-1.4-.5-2.8-.9-4.2zm-.4-8.7c.1-.9-.1-1.7-.4-2.5-.2-.8-.6-1.6-1.1-2.3-.1.9.1 1.7.4 2.5.3.8.6 1.6 1.1 2.3zm-38 54.6c-.2 1-.2 1.9-.1 3 .4-.9.7-1.9.8-2.8.2-1 .2-1.9.1-3-.4.9-.6 1.8-.8 2.8z" fill="#1b141c" stroke-width="none" opacity="1"></path></g></g></g><g id="svga-group-mustache-single-move" transform="matrix(1,0,0,1,0,0)"><g id="svga-group-mustache-single"></g></g><g id="svga-group-nose-single-move" transform="matrix(1,0,0,1,0,0)"><g id="svga-group-nose-single"><path id="SvgjsPath10792" d="M94.01 101.77c-.25.14-5.57 3.17-5.76 7.01-.19 3.84 2.21 5.19 4.23 3.55 2.02-1.63 2.69-1.25 3.94-.19s4.8 1.63 6.24.48c1.44-1.15 2.11-1.63 3.74 0 1.63 1.63 6.05-.77 4.61-5.95-1.44-5.19-11.62-7.88-17-4.9z" fill="url(#SvgjsLinearGradient10793)" opacity="1"></path><path id="SvgjsPath10796" d="M94.01 101.77c-1.1.65-2.14 1.42-3.07 2.3-.93.88-1.75 1.9-2.23 3.08-.14.29-.19.6-.28.91-.03.16-.04.31-.06.47-.02.16-.04.31-.03.47-.02.63.07 1.27.25 1.86.18.59.49 1.15.96 1.53.46.39 1.08.49 1.64.36.14-.03.28-.1.42-.14.13-.07.26-.14.39-.22l.36-.27c.13-.1.25-.21.38-.31.53-.38 1.09-.81 1.87-.87.39-.02.77.1 1.08.28.31.17.57.38.83.59.45.38 1.01.59 1.6.76 1.16.32 2.47.42 3.56.08.28-.08.5-.21.72-.36.25-.2.51-.41.79-.6s.6-.39 1-.49c.41-.1.87-.03 1.21.14.35.17.64.38.89.61.13.11.25.23.37.35.11.1.18.16.29.23.42.24.99.24 1.52.05 1.07-.37 1.91-1.36 2.24-2.49.36-1.13.27-2.42-.08-3.59-.37-1.15-1.18-2.16-2.16-2.94-.98-.79-2.11-1.4-3.29-1.87-1.19-.46-2.43-.79-3.69-.97-1.27-.17-2.56-.22-3.83-.06-1.26.15-2.52.5-3.65 1.11zm0 0c1.13-.62 2.38-.98 3.66-1.14 1.27-.17 2.57-.17 3.85-.03 2.55.29 5.11 1.06 7.23 2.61 1.05.77 1.98 1.8 2.45 3.09.23.64.36 1.29.42 1.96.05.67.01 1.36-.19 2.03-.37 1.32-1.3 2.56-2.68 3.06-.67.24-1.5.3-2.21-.1-.09-.05-.17-.11-.25-.17-.07-.06-.16-.14-.22-.19-.11-.1-.22-.22-.33-.31-.22-.2-.46-.36-.69-.47a.97.97 0 0 0-.66-.09c-.22.05-.47.19-.71.35-.25.17-.49.36-.74.56-.31.22-.65.41-.99.5-.69.21-1.38.24-2.05.2a8.96 8.96 0 0 1-1.98-.36c-.63-.2-1.29-.49-1.81-.96-.47-.41-.95-.8-1.46-.79-.52.01-1.08.34-1.59.69-.13.09-.25.19-.38.28l-.42.29c-.15.08-.31.16-.46.23-.17.05-.33.12-.5.15-.68.14-1.45-.03-1.96-.51-.52-.46-.83-1.09-.99-1.72a6.39 6.39 0 0 1-.18-1.94c0-.16.02-.32.05-.49.03-.16.04-.32.08-.48.11-.31.17-.63.32-.92.24-.6.62-1.13 1-1.65.41-.5.84-.97 1.32-1.4.91-.88 1.96-1.64 3.07-2.28z" fill="#c27b55" stroke-width="none" opacity="1" stroke="none"></path></g></g><g id="svga-group-hair-front"><path id="SvgjsPath9595" d="M142.42 55.29c-.13-2.39-.71-9.41-1.25-10.76-.54-1.35-1.92-4.55-4.99-7.22-3.07-2.66-4.92-4.05-4.92-4.05s.57-3.64-.47-5.23c-1.05-1.58-2.29-4.15-5.53-5.56s-8.16-2.87-8.3-2.87-4.62-1.48-6.71-1.92c-2.09-.44-9.91-1.62-11.77-1.99-1.85-.37-4.22-1.01-5.02-1.89-.81-.88-2.6-3.24-3.2-5.09 0 0-.1 2.09.4 4.25.51 2.16 1.38 3.74 2.36 4.55l-8.38-2.28c-7.75-3.21-9.69-8.54-9.69-8.54.96 4.08 2.58 7.37 5.53 9.99l-.08.03-.4-.1s-1.79-.61-3.47-2.26c-1.69-1.65-3.04-3.78-3.04-3.78s.3 2.46.78 3.74c.47 1.28.88 3.17.88 3.17s-1.85-2.87-2.43-3.57c-.57-.71-2.16-3.1-2.16-3.1s.13 2.26.03 3.74c-.1 1.48-.57 3.54-.57 3.54s-1.55 2.43-2.09 3.34c-.54.91-2.29 3.78-2.56 5.97s-.2 3.37.24 4.35c.44.98 1.01 2.9 1.01 2.9s-2.06 1.32-3.37 2.66c-1.32 1.35-3.27 3.17-4.42 6.27s-1.28 7.89-1.35 9.58-.24 8.26.13 10.32c.37 2.06 1.72 10.76 1.89 11.94.17 1.18 1.35 9.54 1.35 9.54l.95 4.44s-1.04-13.9 2.66-19.46c0 0 .69-13.32 1.85-16.56s1.74-7.3 6.83-11.58c0 0 4.75 3.01 10.31 2.55 0 0 6.14 4.29 9.5 2.66 0 0 3.65 2.73 7.44 1.41 1.44 1.38 2.75 1.65 2.75 1.65s1.73.41 3.34-.91l.13.05s2.08.58 4.63-.93c0 0 .95.9 5.51-1.23l8.23-5.94s2.6.51 6.54 6.68c0 0 1.55 3.88 2.19 7.12.64 3.24 1.18 8.06 1.35 10.18.17 2.12.2 5.02.2 5.02s1.72 3.34 2.23 5.94.71 10.05.71 10.05 1.18-4.15 1.18-4.25c0-.1 1.18-8.84 1.18-8.84l1.45-9.04c0 .02.54-6.28.41-8.68z" fill="#2a232b" stroke-width="none" opacity="1" stroke="none"></path><path id="SvgjsPath9596" d="M141.44 44.31c-.76-2.57-2.5-4.66-4.32-6.46-1.71-1.67-3.61-3.1-5.6-4.39.22-.75.35-1.53.35-2.32-.02-2.53-1.23-4.89-2.95-6.63-1.75-1.77-4.04-2.77-6.26-3.55-2.23-.8-4.52-1.4-6.58-2.44-1.02-.51-1.95-1.25-2.49-2.26-.54-1.01-.59-2.27-.15-3.36-.54 1.05-.6 2.36-.09 3.48.36.82.98 1.5 1.69 2.05-.92-.33-1.85-.59-2.77-.8-2.85-.68-5.73-1.07-8.6-1.47-1.43-.2-2.86-.4-4.28-.64-1.41-.26-2.83-.5-4.12-1.01-.32-.13-.63-.28-.9-.46-.27-.2-.56-.4-.81-.64a9.41 9.41 0 0 1-1.38-1.57c-.8-1.15-1.43-2.46-1.82-3.81l-.54-1.85.04 1.91c.04 1.74.27 3.45.72 5.12.4 1.41.99 2.83 2 3.9-1.53-.41-3.06-.79-4.58-1.17-2.64-.7-5.22-1.73-7.5-3.26-1.14-.76-2.18-1.66-3.12-2.67-.93-1-1.75-2.14-2.28-3.38l-.33.1c.55 2.23 1.33 4.42 2.52 6.4.81 1.36 1.85 2.57 3.01 3.63-1.45-.71-2.78-1.65-3.9-2.8-.57-.57-1.09-1.19-1.57-1.84-.47-.65-.92-1.33-1.27-2.03l-.78-1.54.24 1.71c.31 2.14.81 4.24 1.59 6.27.07.19.17.37.25.56-.57-1.02-1.16-2.03-1.78-3.02-.85-1.36-1.72-2.7-2.65-4.01l-.82-1.16.32 1.43c.38 1.66.28 3.41.16 5.16-.01-.03-.01-.06-.02-.08-.27-.91-.85-1.67-1.52-2.28.59.69 1.07 1.49 1.26 2.35.19.87.05 1.76-.26 2.58-.32.82-.77 1.59-1.28 2.33-.52.76-1.02 1.53-1.47 2.34-.92 1.61-1.6 3.39-1.88 5.27-.31 1.88.08 3.88.78 5.59.16.41.35.8.54 1.19-1.92 1.25-3.7 2.75-5.17 4.54-.79.97-1.5 2.01-2.07 3.14-.58 1.14-.92 2.36-1.21 3.58-1.09 4.9-1.15 9.89-.94 14.85.1 2.5.57 4.95.95 7.38l1.23 7.29c.42 2.41.65 4.88 1.12 7.31.44 2.43.92 4.85 1.42 7.27l.4-.05c-.12-1.71-.16-3.42-.19-5.14-.03-1.71 0-3.43.12-5.14.11-1.71.31-3.39.89-5.01.52-1.61 1.14-3.24 1.95-4.68l.04-.08v-.09c.13-2.53.31-5.06.56-7.58.28-2.52.56-5.03 1.04-7.51.24-1.24.52-2.47.88-3.67.36-1.2.75-2.4 1.34-3.49.57-1.07 1.39-2.09 2.12-3.11.38-.5.77-1.01 1.18-1.48.33-.36.68-.77 1.07-1.04 1.5 1.07 3.26 1.66 5.01 2 1.71.29 3.44.4 5.15.3 1.18.8 2.41 1.54 3.72 2.11.96.4 1.96.73 2.99.89.98.14 2.03.14 2.93-.28.4.37.85.69 1.33.92 1.98.96 4.24.99 6.29.54.77.72 1.67 1.29 2.71 1.58 1.25.26 2.57-.15 3.53-.97 1.32.45 2.85.24 4.06-.5.16-.1.3-.22.45-.33 1.11.34 2.32.14 3.41-.19 1.14-.36 2.21-.91 3.22-1.53 2-1.26 3.94-2.61 5.82-4.05.54-.41 1.07-.84 1.59-1.28.98.58 1.83 1.36 2.62 2.18.92.97 1.76 2.02 2.53 3.11.78 1.06 1.28 2.29 1.71 3.55.42 1.26.76 2.55 1.03 3.86.56 2.62.88 5.29 1.18 7.96.28 2.67.48 5.36.61 8.04v.09l.04.08c.81 1.44 1.43 3.06 1.95 4.68.58 1.62.77 3.3.89 5.01.11 1.71.15 3.42.12 5.14-.03 1.71-.08 3.43-.19 5.14l.4.05c.53-2.51 1.02-5.03 1.48-7.56.22-1.26.43-2.54.59-3.81.16-1.26.37-2.52.58-3.78l1.28-7.58c.21-1.27.41-2.54.58-3.82.17-1.29.23-2.59.28-3.88.16-5.17.07-10.39-1.42-15.43zm-69.72-1.39c-.46.45-.89.92-1.32 1.4-.82.98-1.66 1.93-2.33 3.08-1.29 2.28-1.93 4.81-2.47 7.3-.51 2.51-.9 5.04-1.12 7.59-.23 2.52-.37 5.04-.38 7.58-.79 1.56-1.31 3.16-1.77 4.79-.5 1.66-.69 3.42-.77 5.13-.08 1.72-.08 3.44-.09 5.16 0 .75.01 1.51.03 2.26-.24-1.48-.48-2.96-.69-4.45-.36-2.43-.55-4.88-.91-7.34-.34-2.45-.75-4.88-1.12-7.31-.36-2.44-.74-4.86-.88-7.29-.13-2.44-.15-4.9-.05-7.34.12-2.44.27-4.89.77-7.27.76-4.63 3.96-8.46 7.69-11.32.64 1.24 1.44 2.41 2.37 3.44 1.26 1.38 2.68 2.59 4.18 3.65-.44.25-.78.62-1.14.94zm6.39.68c-1.74-.44-3.44-1.1-4.79-2.23-2.83-2.23-5.42-4.83-6.69-8.16-.68-1.65-1.01-3.35-.77-5.1.2-1.74.83-3.43 1.62-5.03.4-.8.84-1.59 1.32-2.36.4-.65.77-1.34 1.05-2.06-.09 1.28-.17 2.57-.2 3.87-.04 2.07.06 4.17.54 6.24.46 2.08 1.42 4 2.58 5.74 2.35 3.49 5.51 6.28 8.81 8.74.5.37 1.01.73 1.52 1.08-1.69-.09-3.37-.31-4.99-.73zm11.8 3.53c-.99-.21-1.94-.6-2.84-1.05-1.82-.91-3.46-2.11-5.05-3.39-3.15-2.58-6.26-5.31-8.45-8.7-1.1-1.68-1.94-3.52-2.41-5.45-.48-1.94-.6-3.97-.59-6 0-2.03.18-4.07.27-6.13.05-1.03.08-2.06.05-3.11-.02-.61-.06-1.23-.14-1.85 1.51 2.03 2.99 4.08 4.37 6.21.29.62.61 1.23 1 1.81.6.91 1.41 1.79 2.33 2.39 1.75 1.26 3.59 2.34 5.17 3.69 1.57 1.34 2.86 2.98 3.64 4.91 1.68 3.84 1.84 8.19 3.2 12.31.35 1.03.76 2.03 1.29 2.99.28.49.64.94 1.05 1.32-.94.33-1.95.24-2.89.05zm4.42.52a5.585 5.585 0 0 1-2.1-2.16c-.46-.92-.84-1.91-1.14-2.92-1.14-4.03-1.28-8.41-2.98-12.48a13.2 13.2 0 0 0-3.87-5.29c-1.69-1.41-3.55-2.47-5.28-3.68-1.73-1.09-2.77-2.97-3.6-4.87-.62-1.47-1.11-3.01-1.46-4.57.67.93 1.43 1.78 2.28 2.55.61.56 1.27 1.06 1.97 1.49.68.45 1.42.77 2.17 1.08.54.49 1.09.96 1.69 1.39 1.85 1.39 4.04 2.32 6.09 3.21 1.98.98 3.56 2.63 4.66 4.55 2.18 3.91 3.03 8.46 3.7 12.94.28 2.25.72 4.59 1.75 6.66.57 1.1 1.3 2.15 2.22 3-2.09.27-4.31.12-6.1-.9zm8.83 2.38c-2.19-.67-3.8-2.56-4.69-4.61-.42-1.05-.77-2.12-.95-3.24-.21-1.11-.28-2.23-.41-3.38-.22-2.28-.59-4.56-1.12-6.81-.53-2.24-1.29-4.47-2.49-6.49-1.17-2.02-2.91-3.82-5.09-4.78-2.16-.86-4.25-1.65-6.12-2.95-1.89-1.23-3.5-2.88-4.7-4.81-.94-1.49-1.59-3.13-2.07-4.82 1.17 1.98 2.83 3.64 4.68 5 2.29 1.65 4.9 2.82 7.6 3.59 2.69.76 5.36 1.43 7.97 2.34 2.6.89 5.12 2.02 7.33 3.58 2.2 1.55 3.96 3.7 4.89 6.22.97 2.52 1.42 5.26 1.51 8 .1 2.74-.13 5.52-.87 8.17-.38 1.31-.87 2.65-1.77 3.67-.92 1.01-2.35 1.57-3.7 1.32zm7.44-1.58c-1.13.75-2.58 1.06-3.93.69.11-.09.22-.19.32-.3.95-1.06 1.51-2.38 1.96-3.71.87-2.67 1.25-5.48 1.3-8.29.01-2.81-.36-5.65-1.34-8.34-.99-2.71-2.89-5.06-5.22-6.72-2.32-1.69-4.98-2.75-7.63-3.64a60.4 60.4 0 0 0-3.41-1.02c-.96-1.12-1.47-2.57-1.81-3.99-.25-1.12-.39-2.26-.45-3.4.34.86.76 1.68 1.26 2.46.4.62.89 1.2 1.43 1.72.27.27.57.5.87.73.33.23.67.4 1.02.56 1.4.58 2.83.89 4.27 1.15 1.43.26 2.87.47 4.3.68 2.86.42 5.72.84 8.49 1.53 2.76.68 5.52 1.64 7.37 3.71 1.9 2.02 2.37 5.02 1.86 7.75-.29 1.32-.88 2.66-1.45 3.96-.6 1.3-1.24 2.59-1.93 3.86a83.922 83.922 0 0 1-4.46 7.4c-.84 1.18-1.63 2.43-2.82 3.21zm12.57-6.48c-1.79 1.51-3.69 2.89-5.6 4.27-.95.67-1.97 1.25-3.06 1.67-1.05.38-2.21.66-3.33.41 1.03-.77 1.8-1.82 2.58-2.81 1.74-2.33 3.27-4.8 4.72-7.32.73-1.26 1.41-2.54 2.05-3.85.63-1.32 1.24-2.64 1.59-4.14.26-1.47.33-2.99.01-4.48-.29-1.49-1-2.91-2.01-4.05a9.366 9.366 0 0 0-1.63-1.46c1.3.52 2.62.99 3.9 1.51 2.16.88 4.32 1.81 5.88 3.46 1.57 1.61 2.6 3.78 2.61 5.99.02 1.1-.23 2.2-.71 3.21-.46 1.01-1.19 1.89-1.96 2.77-1.53 1.73-3.26 3.3-5.04 4.82zm18.68 17.7c-.08 2.55-.42 5.04-.8 7.58l-1.17 7.6c-.39 2.55-.59 5.11-.95 7.63-.22 1.58-.47 3.15-.73 4.73.02-.75.03-1.5.03-2.25-.01-1.72-.01-3.44-.09-5.16-.09-1.71-.27-3.47-.77-5.13-.46-1.63-.98-3.23-1.77-4.79-.01-2.69-.17-5.37-.43-8.05-.26-2.7-.68-5.38-1.27-8.04-.62-2.63-1.37-5.34-3.07-7.58-.83-1.08-1.73-2.11-2.73-3.04-.84-.77-1.74-1.5-2.77-2.02 1.25-1.06 2.45-2.2 3.55-3.43.78-.88 1.6-1.83 2.14-2.96.18-.37.33-.77.46-1.17 1.89 1.38 3.67 2.93 5.28 4.62 1.74 1.84 3.27 3.92 3.93 6.33.68 2.42.95 4.96 1.09 7.49.15 2.55.17 5.1.07 7.64z" fill="#1b141c" stroke-width="none" opacity="1" stroke="none"></path></g><g id="svga-group-glasses-single-move" transform="matrix(1,0,0,1,0,0)"><g id="svga-group-glasses-single"><path id="SvgjsPath12356" d="M78.8 71.4c8.8 0 16 7.2 16 16s-7.2 16-16 16-16-7.2-16-16 7.1-16 16-16z" fill="url(#SvgjsLinearGradient12357)" opacity="1"></path><path id="SvgjsPath12365" d="M121 71.4c8.8 0 16 7.2 16 16s-7.2 16-16 16-16-7.2-16-16 7.2-16 16-16z" fill="url(#SvgjsLinearGradient12366)" opacity="1"></path><path id="SvgjsPath12374" d="M140.1 85.1h-2.8c-1.1-8-8-14.2-16.4-14.2-7.4 0-13.7 4.9-15.8 11.6-.1-.1-.1-.2-.2-.3-.5-.7-1.3-1-2.4-1.1H97.1c-1 .1-1.8.4-2.4 1.1-.1.1-.2.2-.2.3-2.1-6.7-8.4-11.6-15.8-11.6-8.3 0-15.2 6.2-16.4 14.2h-2.8v2.2h2.6v.2c0 9.1 7.4 16.5 16.5 16.5s16.6-7.4 16.6-16.5c0-.9-.1-1.9-.2-2.8 0 0-.1-1.1.5-1.8.3-.4.9-.7 1.6-.7H102.5c.7 0 1.3.3 1.6.7.6.7.5 1.8.5 1.8-.2.9-.2 1.8-.2 2.8 0 9.1 7.4 16.5 16.5 16.5s16.5-7.4 16.5-16.5v-.2h2.6l.1-2.2zm-61.3 17.8c-8.5 0-15.5-6.9-15.5-15.5S70.2 72 78.8 72s15.5 6.9 15.5 15.5-7 15.4-15.5 15.4zm42.2 0c-8.5 0-15.5-6.9-15.5-15.5S112.5 72 121 72s15.5 6.9 15.5 15.5-7 15.4-15.5 15.4z" fill="#26120b" stroke-width="none" opacity="1"></path></g></g></g></g></g><rect id="svga-credit-rect" width="200" height="15" x="0" y="185" fill="#ecf0f1" opacity="0.5" style="display: none;"></rect><text id="svga-credit-text" font-family="Avenir Next, Roboto, Helvetica, Arial, sans-serif" font-size="10px" text-anchor="start" font-weight="400" size="10px" anchor="start" weight="400" fill="#333333" x="33.402061462402344" y="182.71133995056152" style="display: none;"><tspan id="SvgjsTspan5969" dy="13" x="33.402061462402344">Created on AvatarMaker.com</tspan></text></g><defs id="SvgjsDefs5916"><linearGradient id="SvgjsLinearGradient6558" x1="100.2671" y1="81.0612" x2="100.2671" y2="115.12" gradientUnits="userSpaceOnUse" class="svga-on-canvas-nose-gradient-single-0-null"><stop id="SvgjsStop6559" stop-opacity="0" stop-color="#e8b9a0" offset="0" ></stop><stop id="SvgjsStop6560" stop-opacity="1" stop-color="#d19271" offset="1" ></stop></linearGradient><linearGradient id="SvgjsLinearGradient10745" x1="100.2671" y1="81.0612" x2="100.2671" y2="115.12" gradientUnits="userSpaceOnUse" class="svga-on-canvas-nose-gradient-single-0-null"><stop id="SvgjsStop10746" stop-opacity="0" stop-color="#e8b9a0" offset="0" ></stop><stop id="SvgjsStop10747" stop-opacity="1" stop-color="#d19271" offset="1" ></stop></linearGradient><linearGradient id="SvgjsLinearGradient10793" x1="99.7642" y1="100.53" x2="99.7642" y2="113.2523" gradientUnits="userSpaceOnUse" class="svga-on-canvas-nose-gradient-single-0-null"><stop id="SvgjsStop10794" stop-opacity="0" stop-color="#f0c7b1" offset="0" ></stop><stop id="SvgjsStop10795" stop-opacity="1" stop-color="#e8b9a0" offset="1" ></stop></linearGradient><linearGradient id="SvgjsLinearGradient11800" x1="80.8483" y1="78.7842" x2="80.8483" y2="101.3287" gradientUnits="userSpaceOnUse" class="svga-on-canvas-glasses-gradient-single-0-null"><stop id="SvgjsStop11801" stop-opacity="1" stop-color="#9bc2cf" offset="0" ></stop><stop id="SvgjsStop11802" stop-opacity="0" stop-color="#6086c4" offset="1" ></stop></linearGradient><linearGradient id="SvgjsLinearGradient11804" x1="-19.4949" y1="78.7842" x2="-19.4949" y2="101.3287" gradientTransform="matrix(-1 0 0 1 100 0)" gradientUnits="userSpaceOnUse" class="svga-on-canvas-glasses-gradient-single-1-null"><stop id="SvgjsStop11805" stop-opacity="1" stop-color="#9bc2cf" offset="0" ></stop><stop id="SvgjsStop11806" stop-opacity="0" stop-color="#6086c4" offset="1" ></stop></linearGradient><linearGradient id="SvgjsLinearGradient11848" x1="76.732" y1="80.4509" x2="76.732" y2="100.284" gradientUnits="userSpaceOnUse" class="svga-on-canvas-glasses-gradient-single-0-null"><stop id="SvgjsStop11849" stop-opacity="1" stop-color="#ffba38" offset="0.004166667" ></stop><stop id="SvgjsStop11850" stop-opacity="0.8314" stop-color="#f5b232" offset="0.1721" ></stop><stop id="SvgjsStop11851" stop-opacity="0.541" stop-color="#d99d24" offset="0.4612" ></stop><stop id="SvgjsStop11852" stop-opacity="0.1664" stop-color="#ac7b0c" offset="0.8343" ></stop><stop id="SvgjsStop11853" stop-opacity="0" stop-color="#966a00" offset="1" ></stop></linearGradient><linearGradient id="SvgjsLinearGradient11856" x1="-21.2409" y1="80.8676" x2="-21.2409" y2="100.1419" gradientTransform="matrix(-1 0 0 1 100 0)" gradientUnits="userSpaceOnUse" class="svga-on-canvas-glasses-gradient-single-2-null"><stop id="SvgjsStop11857" stop-opacity="1" stop-color="#ffba38" offset="0.004166667" ></stop><stop id="SvgjsStop11858" stop-opacity="0.8314" stop-color="#f5b232" offset="0.1721" ></stop><stop id="SvgjsStop11859" stop-opacity="0.541" stop-color="#d99d24" offset="0.4612" ></stop><stop id="SvgjsStop11860" stop-opacity="0.1664" stop-color="#ac7b0c" offset="0.8343" ></stop><stop id="SvgjsStop11861" stop-opacity="0" stop-color="#966a00" offset="1" ></stop></linearGradient><linearGradient id="SvgjsLinearGradient11928" x1="79.5772" y1="74.9681" x2="79.5772" y2="107.6386" gradientUnits="userSpaceOnUse" class="svga-on-canvas-glasses-gradient-single-0-null"><stop id="SvgjsStop11929" stop-opacity="1" stop-color="#150000" offset="0.004166667" ></stop><stop id="SvgjsStop11930" stop-opacity="0.8088" stop-color="#190300" offset="0.1945" ></stop><stop id="SvgjsStop11931" stop-opacity="0.6342" stop-color="#240c00" offset="0.3684" ></stop><stop id="SvgjsStop11932" stop-opacity="0.466" stop-color="#361b00" offset="0.5359" ></stop><stop id="SvgjsStop11933" stop-opacity="0.3018" stop-color="#503100" offset="0.6994" ></stop><stop id="SvgjsStop11934" stop-opacity="0.1421" stop-color="#724c00" offset="0.8585" ></stop><stop id="SvgjsStop11935" stop-opacity="0" stop-color="#966a00" offset="1" ></stop></linearGradient><linearGradient id="SvgjsLinearGradient11937" x1="-21.1858" y1="74.8347" x2="-21.1858" y2="107.5897" gradientTransform="matrix(-1 0 0 1 100 0)" gradientUnits="userSpaceOnUse" class="svga-on-canvas-glasses-gradient-single-1-null"><stop id="SvgjsStop11938" stop-opacity="1" stop-color="#150000" offset="0.004166667" ></stop><stop id="SvgjsStop11939" stop-opacity="0.8088" stop-color="#190300" offset="0.1945" ></stop><stop id="SvgjsStop11940" stop-opacity="0.6342" stop-color="#240c00" offset="0.3684" ></stop><stop id="SvgjsStop11941" stop-opacity="0.466" stop-color="#361b00" offset="0.5359" ></stop><stop id="SvgjsStop11942" stop-opacity="0.3018" stop-color="#503100" offset="0.6994" ></stop><stop id="SvgjsStop11943" stop-opacity="0.1421" stop-color="#724c00" offset="0.8585" ></stop><stop id="SvgjsStop11944" stop-opacity="0" stop-color="#966a00" offset="1" ></stop></linearGradient><linearGradient id="SvgjsLinearGradient12013" x1="87.7268" y1="112.9923" x2="87.7268" y2="86.5667" gradientTransform="matrix(0.9926 -1.200000e-02 0 -1 -5.897 192.4354)" gradientUnits="userSpaceOnUse" class="svga-on-canvas-glasses-gradient-single-0-null"><stop id="SvgjsStop12014" stop-opacity="1" stop-color="#3d2d1c" offset="0.0208" ></stop><stop id="SvgjsStop12015" stop-opacity="0.6291" stop-color="#402e1c" offset="0.3825" ></stop><stop id="SvgjsStop12016" stop-opacity="0.3897" stop-color="#48321d" offset="0.6159" ></stop><stop id="SvgjsStop12017" stop-opacity="0.1881" stop-color="#57381f" offset="0.8124" ></stop><stop id="SvgjsStop12018" stop-opacity="7.593334e-03" stop-color="#6c4221" offset="0.9884" ></stop><stop id="SvgjsStop12019" stop-opacity="0" stop-color="#6d4221" offset="0.9958" ></stop></linearGradient><linearGradient id="SvgjsLinearGradient12021" x1="-1744.0752" y1="112.7015" x2="-1744.0752" y2="87.2129" gradientTransform="matrix(-0.9926 1.200000e-02 0 -1 -1611.6344 211.8458)" gradientUnits="userSpaceOnUse" class="svga-on-canvas-glasses-gradient-single-1-null"><stop id="SvgjsStop12022" stop-opacity="1" stop-color="#3d2d1c" offset="0.0208" ></stop><stop id="SvgjsStop12023" stop-opacity="0.6291" stop-color="#402e1c" offset="0.3825" ></stop><stop id="SvgjsStop12024" stop-opacity="0.3897" stop-color="#48321d" offset="0.6159" ></stop><stop id="SvgjsStop12025" stop-opacity="0.1881" stop-color="#57381f" offset="0.8124" ></stop><stop id="SvgjsStop12026" stop-opacity="7.593334e-03" stop-color="#6c4221" offset="0.9884" ></stop><stop id="SvgjsStop12027" stop-opacity="0" stop-color="#6d4221" offset="0.9958" ></stop></linearGradient><linearGradient id="SvgjsLinearGradient12099" x1="77.6751" y1="125.4186" x2="77.6751" y2="98.8032" gradientTransform="matrix(1 0 0 -1 0 202)" gradientUnits="userSpaceOnUse" class="svga-on-canvas-glasses-gradient-single-0-null"><stop id="SvgjsStop12100" stop-opacity="1" stop-color="#3d2d1c" offset="0.0208" ></stop><stop id="SvgjsStop12101" stop-opacity="0.6291" stop-color="#402e1c" offset="0.3825" ></stop><stop id="SvgjsStop12102" stop-opacity="0.3897" stop-color="#48321d" offset="0.6159" ></stop><stop id="SvgjsStop12103" stop-opacity="0.1881" stop-color="#57381f" offset="0.8124" ></stop><stop id="SvgjsStop12104" stop-opacity="7.593334e-03" stop-color="#6c4221" offset="0.9884" ></stop><stop id="SvgjsStop12105" stop-opacity="0" stop-color="#6d4221" offset="0.9958" ></stop></linearGradient><linearGradient id="SvgjsLinearGradient12107" x1="-1739.8073" y1="125.8666" x2="-1739.8073" y2="98.8005" gradientTransform="matrix(-1 0 0 -1 -1618 202)" gradientUnits="userSpaceOnUse" class="svga-on-canvas-glasses-gradient-single-1-null"><stop id="SvgjsStop12108" stop-opacity="1" stop-color="#3d2d1c" offset="0.0208" ></stop><stop id="SvgjsStop12109" stop-opacity="0.6291" stop-color="#402e1c" offset="0.3825" ></stop><stop id="SvgjsStop12110" stop-opacity="0.3897" stop-color="#48321d" offset="0.6159" ></stop><stop id="SvgjsStop12111" stop-opacity="0.1881" stop-color="#57381f" offset="0.8124" ></stop><stop id="SvgjsStop12112" stop-opacity="7.593334e-03" stop-color="#6c4221" offset="0.9884" ></stop><stop id="SvgjsStop12113" stop-opacity="0" stop-color="#6d4221" offset="0.9958" ></stop></linearGradient><linearGradient id="SvgjsLinearGradient12184" x1="78.75" y1="71.43" x2="78.75" y2="103.45" gradientUnits="userSpaceOnUse" class="svga-on-canvas-glasses-gradient-single-0-null"><stop id="SvgjsStop12185" stop-opacity="1" stop-color="#211810" offset="0" ></stop><stop id="SvgjsStop12186" stop-opacity="0.5248" stop-color="#231910" offset="0.4752" ></stop><stop id="SvgjsStop12187" stop-opacity="0.3536" stop-color="#2a1d12" offset="0.6464" ></stop><stop id="SvgjsStop12188" stop-opacity="0.2315" stop-color="#352315" offset="0.7685" ></stop><stop id="SvgjsStop12189" stop-opacity="0.1329" stop-color="#462d18" offset="0.8671" ></stop><stop id="SvgjsStop12190" stop-opacity="4.940000e-02" stop-color="#5c391d" offset="0.9506" ></stop><stop id="SvgjsStop12191" stop-opacity="0" stop-color="#6d4221" offset="1" ></stop></linearGradient><linearGradient id="SvgjsLinearGradient12193" x1="121.01" y1="71.43" x2="121.01" y2="103.45" gradientUnits="userSpaceOnUse" class="svga-on-canvas-glasses-gradient-single-1-null"><stop id="SvgjsStop12194" stop-opacity="1" stop-color="#211810" offset="0" ></stop><stop id="SvgjsStop12195" stop-opacity="0.5248" stop-color="#231910" offset="0.4752" ></stop><stop id="SvgjsStop12196" stop-opacity="0.3536" stop-color="#2a1d12" offset="0.6464" ></stop><stop id="SvgjsStop12197" stop-opacity="0.2315" stop-color="#352315" offset="0.7685" ></stop><stop id="SvgjsStop12198" stop-opacity="0.1329" stop-color="#462d18" offset="0.8671" ></stop><stop id="SvgjsStop12199" stop-opacity="4.940000e-02" stop-color="#5c391d" offset="0.9506" ></stop><stop id="SvgjsStop12200" stop-opacity="0" stop-color="#6d4221" offset="1" ></stop></linearGradient><linearGradient id="SvgjsLinearGradient12266" x1="78.1133" y1="127.4228" x2="78.1133" y2="98.1773" gradientTransform="matrix(1 0 0 -1 0 202)" gradientUnits="userSpaceOnUse" class="svga-on-canvas-glasses-gradient-single-0-null"><stop id="SvgjsStop12267" stop-opacity="1" stop-color="#211810" offset="0" ></stop><stop id="SvgjsStop12268" stop-opacity="0.7372" stop-color="#231b13" offset="0.2628" ></stop><stop id="SvgjsStop12269" stop-opacity="0.5527" stop-color="#2b231c" offset="0.4473" ></stop><stop id="SvgjsStop12270" stop-opacity="0.3921" stop-color="#38312c" offset="0.6079" ></stop><stop id="SvgjsStop12271" stop-opacity="0.2453" stop-color="#4b4641" offset="0.7547" ></stop><stop id="SvgjsStop12272" stop-opacity="0.1091" stop-color="#62605e" offset="0.8909" ></stop><stop id="SvgjsStop12273" stop-opacity="0" stop-color="#7a7a7a" offset="1" ></stop></linearGradient><linearGradient id="SvgjsLinearGradient12275" x1="-1740.0809" y1="126.7549" x2="-1740.0809" y2="98.1705" gradientTransform="matrix(-1 0 0 -1 -1618 202)" gradientUnits="userSpaceOnUse" class="svga-on-canvas-glasses-gradient-single-1-null"><stop id="SvgjsStop12276" stop-opacity="1" stop-color="#211810" offset="0" ></stop><stop id="SvgjsStop12277" stop-opacity="0.7372" stop-color="#231b13" offset="0.2628" ></stop><stop id="SvgjsStop12278" stop-opacity="0.5527" stop-color="#2b231c" offset="0.4473" ></stop><stop id="SvgjsStop12279" stop-opacity="0.3921" stop-color="#38312c" offset="0.6079" ></stop><stop id="SvgjsStop12280" stop-opacity="0.2453" stop-color="#4b4641" offset="0.7547" ></stop><stop id="SvgjsStop12281" stop-opacity="0.1091" stop-color="#62605e" offset="0.8909" ></stop><stop id="SvgjsStop12282" stop-opacity="0" stop-color="#7a7a7a" offset="1" ></stop></linearGradient><linearGradient id="SvgjsLinearGradient12357" x1="78.75" y1="71.43" x2="78.75" y2="103.45" gradientUnits="userSpaceOnUse" class="svga-on-canvas-glasses-gradient-single-0-null"><stop id="SvgjsStop12358" stop-opacity="1" stop-color="#211810" offset="0" ></stop><stop id="SvgjsStop12359" stop-opacity="0.5248" stop-color="#231910" offset="0.4752" ></stop><stop id="SvgjsStop12360" stop-opacity="0.3536" stop-color="#2a1d12" offset="0.6464" ></stop><stop id="SvgjsStop12361" stop-opacity="0.2315" stop-color="#352315" offset="0.7685" ></stop><stop id="SvgjsStop12362" stop-opacity="0.1329" stop-color="#462d18" offset="0.8671" ></stop><stop id="SvgjsStop12363" stop-opacity="4.940000e-02" stop-color="#5c391d" offset="0.9506" ></stop><stop id="SvgjsStop12364" stop-opacity="0" stop-color="#6d4221" offset="1" ></stop></linearGradient><linearGradient id="SvgjsLinearGradient12366" x1="121.01" y1="71.43" x2="121.01" y2="103.45" gradientUnits="userSpaceOnUse" class="svga-on-canvas-glasses-gradient-single-1-null"><stop id="SvgjsStop12367" stop-opacity="1" stop-color="#211810" offset="0" ></stop><stop id="SvgjsStop12368" stop-opacity="0.5248" stop-color="#231910" offset="0.4752" ></stop><stop id="SvgjsStop12369" stop-opacity="0.3536" stop-color="#2a1d12" offset="0.6464" ></stop><stop id="SvgjsStop12370" stop-opacity="0.2315" stop-color="#352315" offset="0.7685" ></stop><stop id="SvgjsStop12371" stop-opacity="0.1329" stop-color="#462d18" offset="0.8671" ></stop><stop id="SvgjsStop12372" stop-opacity="4.940000e-02" stop-color="#5c391d" offset="0.9506" ></stop><stop id="SvgjsStop12373" stop-opacity="0" stop-color="#6d4221" offset="1" ></stop></linearGradient></defs></svg>